<?xml version="1.0" encoding="UTF-8" standalone="no"?>
<svg
   xmlns:ns14="http://www.iki.fi/pav/software/textext/"
   xmlns:dc="http://purl.org/dc/elements/1.1/"
   xmlns:cc="http://creativecommons.org/ns#"
   xmlns:rdf="http://www.w3.org/1999/02/22-rdf-syntax-ns#"
   xmlns:svg="http://www.w3.org/2000/svg"
   xmlns="http://www.w3.org/2000/svg"
   xmlns:sodipodi="http://sodipodi.sourceforge.net/DTD/sodipodi-0.dtd"
   xmlns:inkscape="http://www.inkscape.org/namespaces/inkscape"
   width="50.765076mm"
   height="68.424301mm"
   viewBox="0 0 50.765076 68.424302"
   version="1.1"
   id="svg6829"
   sodipodi:docname="2.svg"
   inkscape:version="1.0.1 (3bc2e813f5, 2020-09-07)">
  <defs
     id="defs6823">
    <inkscape:path-effect
       effect="spiro"
       id="path-effect11983"
       is_visible="true"
       lpeversion="1" />
    <inkscape:path-effect
       effect="spiro"
       id="path-effect11948"
       is_visible="true"
       lpeversion="1" />
    <inkscape:path-effect
       effect="spiro"
       id="path-effect11944"
       is_visible="true"
       lpeversion="1" />
    <inkscape:path-effect
       effect="spiro"
       id="path-effect11940"
       is_visible="true"
       lpeversion="1" />
    <inkscape:path-effect
       effect="spiro"
       id="path-effect11936"
       is_visible="true"
       lpeversion="1" />
    <inkscape:path-effect
       effect="spiro"
       id="path-effect11926"
       is_visible="true"
       lpeversion="1" />
    <inkscape:path-effect
       effect="spiro"
       id="path-effect11907"
       is_visible="true"
       lpeversion="1" />
    <inkscape:path-effect
       effect="spiro"
       id="path-effect11903"
       is_visible="true"
       lpeversion="1" />
    <clipPath
       clipPathUnits="userSpaceOnUse"
       id="clipPath5533">
      <path
         d="M 0,0 H 128.4 V 192.77 H 0 Z"
         id="path5531" />
    </clipPath>
    <g
       id="id-7b68e8cb-7abb-4971-befe-914d87d4bd25-7">
      <symbol
         overflow="visible"
         id="id-ae12d395-a33e-488a-b561-1de5429e4222-5">
        <path
           style="stroke:none"
           d=""
           id="id-22497f05-e51b-4c5d-ae75-e518284f8f4f-3" />
      </symbol>
      <symbol
         overflow="visible"
         id="id-30dc6c54-c5f2-4d31-aece-374ea269e038-5">
        <path
           style="stroke:none"
           d="m 7.578125,-6.921875 c 0,-0.03125 -0.015625,-0.109375 -0.109375,-0.109375 -0.03125,0 -0.046875,0.015625 -0.15625,0.125 L 6.625,-6.140625 C 6.53125,-6.28125 6.078125,-7.03125 4.96875,-7.03125 2.734375,-7.03125 0.5,-4.828125 0.5,-2.515625 0.5,-0.875 1.671875,0.21875 3.203125,0.21875 c 0.859375,0 1.625,-0.390625 2.15625,-0.859375 0.921875,-0.8125 1.09375,-1.71875 1.09375,-1.75 C 6.453125,-2.5 6.34375,-2.5 6.328125,-2.5 c -0.0625,0 -0.109375,0.03125 -0.125,0.109375 -0.09375,0.28125 -0.328125,1 -1.015625,1.578125 -0.6875,0.546875 -1.3125,0.71875 -1.828125,0.71875 -0.890625,0 -1.953125,-0.515625 -1.953125,-2.0625 0,-0.578125 0.203125,-2.1875 1.203125,-3.359375 0.609375,-0.703125 1.546875,-1.203125 2.4375,-1.203125 1.015625,0 1.609375,0.765625 1.609375,1.921875 0,0.40625 -0.03125,0.40625 -0.03125,0.515625 0,0.09375 0.109375,0.09375 0.140625,0.09375 0.125,0 0.125,-0.015625 0.1875,-0.203125 z m 0,0"
           id="id-523cc491-6962-4094-b53f-6214f118b703-6" />
      </symbol>
    </g>
    <g
       id="id-7b68e8cb-7abb-4971-befe-914d87d4bd25-9">
      <symbol
         overflow="visible"
         id="id-ae12d395-a33e-488a-b561-1de5429e4222-3">
        <path
           style="stroke:none"
           d=""
           id="id-22497f05-e51b-4c5d-ae75-e518284f8f4f-6" />
      </symbol>
      <symbol
         overflow="visible"
         id="id-30dc6c54-c5f2-4d31-aece-374ea269e038-0">
        <path
           style="stroke:none"
           d="m 7.578125,-6.921875 c 0,-0.03125 -0.015625,-0.109375 -0.109375,-0.109375 -0.03125,0 -0.046875,0.015625 -0.15625,0.125 L 6.625,-6.140625 C 6.53125,-6.28125 6.078125,-7.03125 4.96875,-7.03125 2.734375,-7.03125 0.5,-4.828125 0.5,-2.515625 0.5,-0.875 1.671875,0.21875 3.203125,0.21875 c 0.859375,0 1.625,-0.390625 2.15625,-0.859375 0.921875,-0.8125 1.09375,-1.71875 1.09375,-1.75 C 6.453125,-2.5 6.34375,-2.5 6.328125,-2.5 c -0.0625,0 -0.109375,0.03125 -0.125,0.109375 -0.09375,0.28125 -0.328125,1 -1.015625,1.578125 -0.6875,0.546875 -1.3125,0.71875 -1.828125,0.71875 -0.890625,0 -1.953125,-0.515625 -1.953125,-2.0625 0,-0.578125 0.203125,-2.1875 1.203125,-3.359375 0.609375,-0.703125 1.546875,-1.203125 2.4375,-1.203125 1.015625,0 1.609375,0.765625 1.609375,1.921875 0,0.40625 -0.03125,0.40625 -0.03125,0.515625 0,0.09375 0.109375,0.09375 0.140625,0.09375 0.125,0 0.125,-0.015625 0.1875,-0.203125 z m 0,0"
           id="id-523cc491-6962-4094-b53f-6214f118b703-62" />
      </symbol>
    </g>
    <g
       id="id-7b68e8cb-7abb-4971-befe-914d87d4bd25-0">
      <symbol
         overflow="visible"
         id="id-ae12d395-a33e-488a-b561-1de5429e4222-2">
        <path
           style="stroke:none"
           d=""
           id="id-22497f05-e51b-4c5d-ae75-e518284f8f4f-37" />
      </symbol>
      <symbol
         overflow="visible"
         id="id-30dc6c54-c5f2-4d31-aece-374ea269e038-59">
        <path
           style="stroke:none"
           d="m 7.578125,-6.921875 c 0,-0.03125 -0.015625,-0.109375 -0.109375,-0.109375 -0.03125,0 -0.046875,0.015625 -0.15625,0.125 L 6.625,-6.140625 C 6.53125,-6.28125 6.078125,-7.03125 4.96875,-7.03125 2.734375,-7.03125 0.5,-4.828125 0.5,-2.515625 0.5,-0.875 1.671875,0.21875 3.203125,0.21875 c 0.859375,0 1.625,-0.390625 2.15625,-0.859375 0.921875,-0.8125 1.09375,-1.71875 1.09375,-1.75 C 6.453125,-2.5 6.34375,-2.5 6.328125,-2.5 c -0.0625,0 -0.109375,0.03125 -0.125,0.109375 -0.09375,0.28125 -0.328125,1 -1.015625,1.578125 -0.6875,0.546875 -1.3125,0.71875 -1.828125,0.71875 -0.890625,0 -1.953125,-0.515625 -1.953125,-2.0625 0,-0.578125 0.203125,-2.1875 1.203125,-3.359375 0.609375,-0.703125 1.546875,-1.203125 2.4375,-1.203125 1.015625,0 1.609375,0.765625 1.609375,1.921875 0,0.40625 -0.03125,0.40625 -0.03125,0.515625 0,0.09375 0.109375,0.09375 0.140625,0.09375 0.125,0 0.125,-0.015625 0.1875,-0.203125 z m 0,0"
           id="id-523cc491-6962-4094-b53f-6214f118b703-2" />
      </symbol>
    </g>
    <g
       id="id-7b68e8cb-7abb-4971-befe-914d87d4bd25-2">
      <symbol
         overflow="visible"
         id="id-ae12d395-a33e-488a-b561-1de5429e4222-9">
        <path
           style="stroke:none"
           d=""
           id="id-22497f05-e51b-4c5d-ae75-e518284f8f4f-31" />
      </symbol>
      <symbol
         overflow="visible"
         id="id-30dc6c54-c5f2-4d31-aece-374ea269e038-9">
        <path
           style="stroke:none"
           d="m 7.578125,-6.921875 c 0,-0.03125 -0.015625,-0.109375 -0.109375,-0.109375 -0.03125,0 -0.046875,0.015625 -0.15625,0.125 L 6.625,-6.140625 C 6.53125,-6.28125 6.078125,-7.03125 4.96875,-7.03125 2.734375,-7.03125 0.5,-4.828125 0.5,-2.515625 0.5,-0.875 1.671875,0.21875 3.203125,0.21875 c 0.859375,0 1.625,-0.390625 2.15625,-0.859375 0.921875,-0.8125 1.09375,-1.71875 1.09375,-1.75 C 6.453125,-2.5 6.34375,-2.5 6.328125,-2.5 c -0.0625,0 -0.109375,0.03125 -0.125,0.109375 -0.09375,0.28125 -0.328125,1 -1.015625,1.578125 -0.6875,0.546875 -1.3125,0.71875 -1.828125,0.71875 -0.890625,0 -1.953125,-0.515625 -1.953125,-2.0625 0,-0.578125 0.203125,-2.1875 1.203125,-3.359375 0.609375,-0.703125 1.546875,-1.203125 2.4375,-1.203125 1.015625,0 1.609375,0.765625 1.609375,1.921875 0,0.40625 -0.03125,0.40625 -0.03125,0.515625 0,0.09375 0.109375,0.09375 0.140625,0.09375 0.125,0 0.125,-0.015625 0.1875,-0.203125 z m 0,0"
           id="id-523cc491-6962-4094-b53f-6214f118b703-4" />
      </symbol>
    </g>
    <g
       id="id-a7e2325f-4e39-482c-be1f-2e2ccf3b23ab-6">
      <symbol
         overflow="visible"
         id="id-fa2680be-ab32-4083-8efa-a25c8f26a8c0-1">
        <path
           style="stroke:none"
           d=""
           id="id-535f1c8c-f0a8-4177-bf82-64aa944bac54-0" />
      </symbol>
      <symbol
         overflow="visible"
         id="id-8f79f91d-5a77-4174-8ed6-bc853a77ce8a-6">
        <path
           style="stroke:none"
           d="M 1.59375,-0.78125 C 1.5,-0.390625 1.46875,-0.3125 0.6875,-0.3125 c -0.171875,0 -0.265625,0 -0.265625,0.203125 C 0.421875,0 0.515625,0 0.6875,0 H 4.25 C 5.828125,0 7,-1.171875 7,-2.15625 7,-2.875 6.421875,-3.453125 5.453125,-3.5625 6.484375,-3.75 7.53125,-4.484375 7.53125,-5.4375 c 0,-0.734375 -0.65625,-1.375 -1.84375,-1.375 H 2.328125 c -0.1875,0 -0.28125,0 -0.28125,0.203125 0,0.109375 0.09375,0.109375 0.28125,0.109375 0.015625,0 0.203125,0 0.375,0.015625 0.171875,0.03125 0.265625,0.03125 0.265625,0.171875 0,0.03125 -0.015625,0.0625 -0.03125,0.1875 z m 1.5,-2.875 0.625,-2.46875 C 3.8125,-6.46875 3.828125,-6.5 4.25,-6.5 h 1.296875 c 0.875,0 1.078125,0.59375 1.078125,1.03125 0,0.875 -0.859375,1.8125 -2.0625,1.8125 z m -0.4375,3.34375 c -0.140625,0 -0.15625,0 -0.21875,0 -0.109375,-0.015625 -0.140625,-0.03125 -0.140625,-0.109375 0,-0.03125 0,-0.046875 0.0625,-0.21875 l 0.6875,-2.78125 h 1.875 c 0.953125,0 1.15625,0.734375 1.15625,1.15625 C 6.078125,-1.28125 5.1875,-0.3125 4,-0.3125 Z m 0,0"
           id="id-9074ef8f-b8de-427b-9721-36ec78e8ed84-3" />
      </symbol>
    </g>
    <g
       id="id-7b68e8cb-7abb-4971-befe-914d87d4bd25-4">
      <symbol
         overflow="visible"
         id="id-ae12d395-a33e-488a-b561-1de5429e4222-7">
        <path
           style="stroke:none"
           d=""
           id="id-22497f05-e51b-4c5d-ae75-e518284f8f4f-65" />
      </symbol>
      <symbol
         overflow="visible"
         id="id-30dc6c54-c5f2-4d31-aece-374ea269e038-6">
        <path
           style="stroke:none"
           d="m 7.578125,-6.921875 c 0,-0.03125 -0.015625,-0.109375 -0.109375,-0.109375 -0.03125,0 -0.046875,0.015625 -0.15625,0.125 L 6.625,-6.140625 C 6.53125,-6.28125 6.078125,-7.03125 4.96875,-7.03125 2.734375,-7.03125 0.5,-4.828125 0.5,-2.515625 0.5,-0.875 1.671875,0.21875 3.203125,0.21875 c 0.859375,0 1.625,-0.390625 2.15625,-0.859375 0.921875,-0.8125 1.09375,-1.71875 1.09375,-1.75 C 6.453125,-2.5 6.34375,-2.5 6.328125,-2.5 c -0.0625,0 -0.109375,0.03125 -0.125,0.109375 -0.09375,0.28125 -0.328125,1 -1.015625,1.578125 -0.6875,0.546875 -1.3125,0.71875 -1.828125,0.71875 -0.890625,0 -1.953125,-0.515625 -1.953125,-2.0625 0,-0.578125 0.203125,-2.1875 1.203125,-3.359375 0.609375,-0.703125 1.546875,-1.203125 2.4375,-1.203125 1.015625,0 1.609375,0.765625 1.609375,1.921875 0,0.40625 -0.03125,0.40625 -0.03125,0.515625 0,0.09375 0.109375,0.09375 0.140625,0.09375 0.125,0 0.125,-0.015625 0.1875,-0.203125 z m 0,0"
           id="id-523cc491-6962-4094-b53f-6214f118b703-9" />
      </symbol>
    </g>
    <inkscape:path-effect
       effect="spiro"
       id="path-effect12226"
       is_visible="true"
       lpeversion="1" />
    <inkscape:path-effect
       effect="spiro"
       id="path-effect12261"
       is_visible="true"
       lpeversion="1" />
  </defs>
  <sodipodi:namedview
     id="base"
     pagecolor="#ffffff"
     bordercolor="#666666"
     borderopacity="1.0"
     inkscape:pageopacity="0.0"
     inkscape:pageshadow="2"
     inkscape:zoom="2.6902867"
     inkscape:cx="134.29141"
     inkscape:cy="156.04056"
     inkscape:document-units="mm"
     inkscape:current-layer="layer1"
     inkscape:document-rotation="0"
     showgrid="false"
     inkscape:window-width="1366"
     inkscape:window-height="710"
     inkscape:window-x="0"
     inkscape:window-y="34"
     inkscape:window-maximized="1"
     inkscape:snap-nodes="true"
     inkscape:snap-intersection-paths="true"
     inkscape:snap-bbox="false"
     inkscape:snap-bbox-midpoints="true"
     inkscape:snap-bbox-edge-midpoints="true"
     inkscape:bbox-nodes="true"
     inkscape:bbox-paths="true"
     inkscape:snap-object-midpoints="true"
     showguides="false"
     inkscape:snap-others="true"
     inkscape:snap-text-baseline="true"
     inkscape:object-paths="false"
     inkscape:object-nodes="true"
     inkscape:snap-smooth-nodes="true"
     inkscape:snap-global="true" />
  <metadata
     id="metadata6826">
    <rdf:RDF>
      <cc:Work
         rdf:about="">
        <dc:format>image/svg+xml</dc:format>
        <dc:type
           rdf:resource="http://purl.org/dc/dcmitype/StillImage" />
        <dc:title />
      </cc:Work>
    </rdf:RDF>
  </metadata>
  <g
     inkscape:label="Capa 1"
     inkscape:groupmode="layer"
     id="layer1"
     transform="translate(-25.606892,12.424668)">
    <g
       id="g5529"
       clip-path="url(#clipPath5533)"
       transform="matrix(0.33655918,0,0,-0.33674124,25.399162,89.741752)">
      <g
         id="g5535">
        <g
           id="g5537">
          <g
             id="g5539" />
        </g>
        <path
           d="M 43.048,31.396 31.604,9.9311 31.589,9.905 30.734,8.48 30.702,8.4319 29.734,7.1269 29.696,7.0806 28.616,5.8956 28.574,5.8538 27.396,4.7963 27.351,4.7594 26.084,3.8294 26.035,3.7972 24.692,3.0022 24.643,2.9759 23.24,2.3159 23.188,2.2943 21.725,1.7693 21.671,1.7527 20.163,1.3702 20.106,1.3586 18.569,1.1261 18.511,1.1203 16.959,1.0378 16.905,1.0374 15.33,1.0974 15.268,1.103 13.701,1.328 13.644,1.339 12.084,1.7215 12.028,1.738 10.491,2.278 10.435,2.3008 8.9351,3.0058 8.8822,3.034 7.4572,3.889 7.4074,3.9225 6.1024,4.8974 6.0563,4.9356 4.8713,6.0231 4.831,6.0638 3.7735,7.2413 3.7366,7.2868 2.8066,8.5543 2.7745,8.6029 1.9795,9.9454 1.9531,9.9951 l -0.66,1.4029 -0.0215,0.052 -0.52504,1.462 -0.01649,0.054 -0.3825,1.5 -0.01173,0.058 -0.2325,1.538 -0.005831,0.057 -0.0825,1.552 -4.01e-4,0.054 0.06,1.568 0.005584,0.061 0.224998,1.568 0.01105,0.057 0.3825,1.56 0.01645,0.055 0.54001,1.538 0.0228,0.056 0.705,1.5 0.0134,0.026 27.6596,51.87 0.015,0.026 0.855,1.425 0.034,0.05 0.975,1.305 0.038,0.046 1.087,1.185 0.043,0.042 1.177,1.05 0.044,0.036 1.267,0.93 0.049,0.032 1.343,0.795 0.049,0.026 1.403,0.66 0.052,0.022 1.463,0.525 0.054,0.016 1.508,0.383 0.056,0.011 1.53,0.233 0.055,0.005 1.56,0.09 0.06,10e-4 1.568,-0.068 0.056,-0.005 1.567,-0.217 0.06,-0.012 1.553,-0.382 0.055,-0.017 1.537,-0.54 0.056,-0.022 1.5,-0.705 0.053,-0.029 1.425,-0.855 0.05,-0.033 1.305,-0.975 0.046,-0.038 1.185,-1.088 0.04,-0.04 1.057,-1.178 0.037,-0.045 0.93,-1.268 0.031,-0.046 0.803,-1.343 0.028,-0.053 0.66,-1.41 0.021,-0.05 0.525,-1.455 0.017,-0.055 0.382,-1.508 0.012,-0.057 0.232,-1.53 0.006,-0.055 0.09,-1.56 V 69.78 l -0.067,-1.568 -0.006,-0.059 -0.225,-1.567 -0.011,-0.057 -0.382,-1.56 -0.017,-0.055 -0.54,-1.538 -0.024,-0.058 -0.712,-1.5 -0.012,-0.024 -12.398,-23.25 -1.047,0.558 12.397,23.25 -0.012,-0.025 0.713,1.5 -0.024,-0.058 0.54,1.538 -0.017,-0.056 0.383,1.56 -0.011,-0.057 0.225,1.568 -0.006,-0.059 0.068,1.568 v -0.06 l -0.09,1.56 0.006,-0.055 -0.233,1.53 0.012,-0.057 -0.383,1.508 0.017,-0.056 -0.525,1.455 0.021,-0.05 -0.66,1.41 0.028,-0.053 -0.802,1.343 0.031,-0.047 -0.93,1.268 0.037,-0.046 -1.058,1.178 0.04,-0.041 -1.185,1.088 0.046,-0.039 -1.305,0.975 0.05,-0.033 -1.425,0.855 0.053,-0.028 -1.5,0.705 0.056,-0.023 -1.538,0.54 0.055,-0.016 -1.552,0.382 0.06,-0.011 -1.568,0.217 0.056,-0.005 -1.567,0.067 0.06,0.001 -1.56,-0.09 0.055,0.006 -1.53,-0.233 0.056,0.012 -1.507,-0.383 0.054,0.017 -1.462,-0.525 0.052,0.021 -1.402,-0.66 0.049,0.027 -1.342,-0.795 0.049,0.032 -1.268,-0.93 0.044,0.035 -1.178,-1.05 0.043,0.042 -1.088,-1.185 0.038,0.046 -0.975,-1.305 0.034,0.05 -0.855,-1.425 0.015,0.026 -27.6604,-51.87 0.0134,0.027 -0.705,-1.5 0.0228,0.056 -0.54,-1.538 0.0165,0.055 -0.3825,-1.56 0.011,0.057 -0.225,-1.567 0.0056,0.062 -0.06,-1.568 -4e-4,0.054 0.0825,-1.552 -0.0058,0.057 0.2325,-1.538 -0.0118,0.058 0.3825,-1.5 -0.0165,0.054 0.525,-1.462 L 2.3669,11.903 3.0269,10.5 3.0005,10.55 3.7955,9.2075 3.7634,9.2561 4.6934,7.9886 4.6565,8.0341 5.714,6.8566 5.6737,6.8973 6.8587,5.8098 6.8126,5.8479 8.1176,4.873 8.0678,4.9064 9.4928,4.0514 9.4399,4.0796 10.94,3.3746 l -0.056,0.0228 1.538,-0.5399 -0.056,0.0164 1.56,-0.3825 -0.057,0.011 1.568,-0.2249 -0.062,0.0056 1.575,-0.0601 -0.054,-4e-4 1.553,0.0825 -0.058,-0.0058 1.538,0.2325 -0.057,-0.0116 1.507,0.3825 -0.054,-0.0166 1.462,0.525 -0.052,-0.0216 1.402,0.66 -0.049,-0.0263 1.342,0.795 -0.049,-0.0322 1.268,0.93 -0.045,-0.0369 1.177,1.0575 -0.042,-0.0418 1.08,1.185 -0.038,-0.0463 0.967,1.305 -0.032,-0.0481 0.855,1.4246 -0.015,-0.026 11.446,21.466 z"
           style="fill:#000000;fill-opacity:1;fill-rule:nonzero;stroke:none"
           id="path5541" />
        <path
           d="m 46.865,39.704 4.095,-2.37 -0.595,-1.027 -4.095,2.37 z m 8.075,-4.716 0.93,-0.533 0.108,-0.079 0.3,-0.278 0.132,-0.179 0.173,-0.36 0.057,-0.223 0.022,-0.405 -0.027,-0.214 -0.128,-0.398 -0.052,-0.119 -3.443,-5.88 -0.061,-0.086 -0.271,-0.315 -0.194,-0.149 -0.36,-0.172 -0.222,-0.058 -0.398,-0.022 -0.237,0.035 -0.39,0.142 -0.095,0.045 -8.67,5.055 0.597,1.025 8.67,-5.055 -0.095,0.045 0.39,-0.143 -0.237,0.036 0.397,0.022 -0.222,-0.057 0.36,0.172 -0.195,-0.149 0.27,0.315 -0.061,-0.086 3.442,5.88 -0.052,-0.119 0.127,0.398 -0.027,-0.214 -0.023,0.405 0.057,-0.224 -0.172,0.36 0.132,-0.179 -0.3,0.278 0.108,-0.08 -0.93,0.533 z"
           style="fill:#000000;fill-opacity:1;fill-rule:nonzero;stroke:none"
           id="path5543" />
        <path
           d="m 115.57,144.29 -0.06,-0.08 -0.24,-0.25 -0.11,-0.08 -0.29,-0.18 -0.09,-0.05 -0.3,-0.12 -0.12,-0.04 -0.32,-0.06 -0.11,-0.01 h -0.33 l -0.12,0.02 -0.32,0.06 -0.11,0.04 -0.3,0.12 -0.1,0.05 -0.29,0.19 -0.1,0.08 -0.24,0.24 -0.09,0.11 -0.17,0.29 -0.04,0.08 -0.12,0.3 -0.04,0.12 -0.06,0.32 -0.01,0.11 v 0.33 l 0.02,0.12 0.06,0.32 0.04,0.11 0.12,0.3 0.06,0.12 0.21,0.29 0.06,0.07 0.24,0.25 0.11,0.09 0.28,0.18 0.1,0.05 0.3,0.12 0.11,0.03 0.32,0.06 0.11,0.01 h 0.33 l 0.12,-0.01 0.33,-0.07 0.1,-0.03 0.31,-0.13 0.09,-0.05 0.3,-0.19 0.09,-0.08 0.24,-0.24 0.09,-0.11 0.18,-0.28 0.04,-0.09 0.12,-0.3 0.03,-0.11 0.06,-0.32 0.01,-0.11 v -0.33 l -0.01,-0.12 -0.07,-0.33 -0.03,-0.1 -0.13,-0.31 -0.06,-0.11 z m -0.78,0.97 -0.06,-0.12 0.13,0.31 -0.03,-0.1 0.07,0.32 -0.02,-0.12 v 0.33 l 0.01,-0.11 -0.06,0.32 0.04,-0.11 -0.12,0.3 0.04,-0.09 -0.17,0.29 0.09,-0.11 -0.24,0.24 0.09,-0.08 -0.29,0.18 0.1,-0.05 -0.31,0.13 0.1,-0.03 -0.32,0.07 0.12,-0.02 h -0.33 l 0.11,0.01 -0.32,-0.06 0.11,0.04 -0.3,-0.12 0.1,0.05 -0.29,-0.18 0.11,0.08 -0.24,-0.24 0.06,0.07 -0.2,-0.29 0.06,0.11 -0.13,-0.31 0.04,0.11 -0.07,-0.32 0.01,0.12 v -0.33 l -0.01,0.11 0.06,-0.33 -0.03,0.12 0.12,-0.3 -0.04,0.08 0.17,-0.28 -0.09,0.11 0.24,-0.24 -0.1,0.08 0.29,-0.19 -0.09,0.05 0.31,-0.13 -0.11,0.04 0.32,-0.07 -0.12,0.01 h 0.33 l -0.11,-0.01 0.33,0.06 -0.12,-0.03 0.3,0.12 -0.09,-0.05 0.28,0.18 -0.11,-0.09 0.24,0.25 -0.06,-0.08 z"
           style="opacity:0.2;fill:#000000;fill-opacity:1;fill-rule:nonzero;stroke:none"
           id="path5545" />
        <path
           d="m 54.4,34.74 0.758,1.185 -0.003,-0.004 0.788,1.252 0.825,1.313 -0.002,-0.002 0.855,1.372 -0.001,-0.002 0.885,1.433 0.923,1.486 -0.002,-0.003 0.945,1.545 0.976,1.59 -0.002,-0.002 0.998,1.643 1.028,1.688 -0.002,-0.003 2.115,3.51 2.197,3.667 2.272,3.809 -0.001,-0.002 2.325,3.93 2.385,4.027 2.422,4.117 2.444,4.176 2.467,4.229 2.474,4.259 4.92,8.519 2.429,4.222 2.392,4.186 2.347,4.11 2.295,4.03 2.218,3.92 2.14,3.8 2.05,3.67 1.95,3.5 0.94,1.69 0.91,1.64 h -0.01 l 0.87,1.59 0.85,1.54 v -0.01 l 0.81,1.49 v 0 l 0.77,1.43 0.75,1.37 0.7,1.31 v 0 l 0.66,1.25 0.62,1.17 v 0 l 0.58,1.12 v 0 l 0.54,1.04 v 0 l 0.5,0.96 h -0.01 l 0.45,0.9 v 0 l 0.41,0.81 v 0 l 0.36,0.74 -0.02,-0.04 0.16,0.38 -0.03,-0.07 0.11,0.4 -0.01,-0.05 0.07,0.39 -0.01,-0.08 0.01,0.39 0.01,-0.09 -0.09,0.77 0.03,-0.12 -0.24,0.73 0.04,-0.1 -0.37,0.69 0.05,-0.08 -0.48,0.63 0.07,-0.08 -0.59,0.55 0.07,-0.05 -0.67,0.46 0.08,-0.04 -0.73,0.36 0.09,-0.04 -0.78,0.24 0.09,-0.02 -0.81,0.12 0.11,-0.01 -0.83,-0.03 0.12,0.02 -0.83,-0.2 0.08,0.02 -0.4,-0.15 0.05,0.02 -0.4,-0.2 0.06,0.03 -0.39,-0.25 0.04,0.03 -0.38,-0.3 0.04,0.03 -0.37,-0.34 0.04,0.04 -0.34,-0.4 -0.01,-0.01 -0.05,-0.06 v 0 l -0.14,-0.16 0.01,0.01 -0.24,-0.28 -0.32,-0.38 -0.4,-0.48 -0.48,-0.57 0.01,0.01 -0.54,-0.66 v 0 l -0.62,-0.73 v 0 l -0.66,-0.81 -0.73,-0.88 v 0 l -0.77,-0.94 -0.82,-1 -0.86,-1.06 v 0 l -0.89,-1.11 -1.88,-2.34 0.01,0.01 -1.954,-2.48 h 0.003 l -1.988,-2.55 h 0.005 l -1.98,-2.62 0.003,0.01 -1.943,-2.62 0.005,0.01 -1.86,-2.58 0.006,0.01 -1.74,-2.51 0.007,0.01 -0.802,-1.21 0.003,0.01 -0.765,-1.18 0.005,0.01 -0.713,-1.13 0.007,0.01 -0.653,-1.09 0.006,0.01 -0.608,-1.06 0.006,0.01 -0.607,-1.11 0.005,0.01 -0.6,-1.14 0.007,0.01 -0.593,-1.2 0.006,0.01 -1.17,-2.51 0.006,0.02 -1.155,-2.64 0.004,0.01 -1.14,-2.75 h 0.004 l -1.125,-2.84 0.003,0.01 -1.11,-2.918 0.001,0.003 -1.103,-2.955 0.002,0.005 -2.16,-5.947 -1.072,-2.948 -0.001,-0.002 -1.065,-2.895 -0.001,-0.003 -1.058,-2.828 -0.002,-0.005 -1.05,-2.73 -0.003,-0.008 -1.05,-2.61 -0.004,-0.01 -1.05,-2.475 -0.004,-0.01 -0.548,-1.23 -10e-4,-0.002 -0.577,-1.283 -0.002,-0.003 -0.615,-1.343 -0.001,-0.003 -0.645,-1.387 -0.002,-0.003 -1.365,-2.895 -0.002,-0.005 -1.447,-3.007 -10e-4,-0.002 -1.485,-3.06 -0.002,-0.003 -1.515,-3.068 -1.5,-3.03 -0.002,-0.004 -1.47,-2.925 -0.704,-1.409 -0.691,-1.373 -10e-4,-0.003 -0.668,-1.312 -0.645,-1.262 10e-4,0.003 -0.608,-1.2 -0.57,-1.125 -10e-4,-0.004 -0.54,-1.05 -0.495,-0.966 -0.45,-0.878 -0.001,-0.003 -0.405,-0.78 0.003,0.006 -0.345,-0.682 -0.005,-0.009 -0.3,-0.57 0.004,0.007 -0.233,-0.457 -0.003,-0.006 -0.172,-0.33 10e-4,0.002 -0.105,-0.203 0.004,0.008 -0.038,-0.075 -1.061,0.531 0.037,0.074 0.004,0.008 0.105,0.203 0.001,0.002 0.173,0.33 -0.003,-0.007 0.232,0.458 0.004,0.008 0.3,0.57 -0.005,-0.009 0.345,0.682 0.003,0.006 0.405,0.78 -10e-4,-0.003 0.45,0.877 0.495,0.969 0.54,1.05 -10e-4,-0.003 0.57,1.125 0.607,1.2 10e-4,0.002 0.645,1.259 0.667,1.312 -0.001,-0.002 0.689,1.371 0.706,1.411 1.47,2.925 -0.002,-0.003 1.5,3.029 1.515,3.068 -0.002,-0.004 1.485,3.06 -0.001,-0.002 1.448,3.008 -0.002,-0.004 1.365,2.895 -0.002,-0.003 0.645,1.387 -0.001,-0.003 0.615,1.343 -0.002,-0.004 0.578,1.283 -10e-4,-0.003 0.547,1.23 -0.004,-0.009 1.05,2.475 -0.004,-0.01 1.05,2.61 -0.003,-0.009 1.05,2.73 -0.002,-0.005 1.057,2.828 -0.001,-0.003 1.065,2.895 -0.001,-0.002 1.073,2.947 2.16,5.947 0.002,0.005 1.102,2.955 0.001,0.004 1.11,2.916 0.003,0.01 1.125,2.84 0.004,0.01 1.14,2.75 0.004,0.01 1.155,2.64 0.006,0.02 1.17,2.5 0.006,0.01 0.592,1.2 0.007,0.02 0.6,1.14 0.005,0.01 0.608,1.11 0.006,0.01 0.607,1.06 0.006,0.01 0.652,1.09 0.007,0.01 0.712,1.13 0.005,0.01 0.765,1.18 h 0.003 l 0.803,1.21 0.007,0.01 1.74,2.5 0.006,0.01 1.86,2.58 0.005,0.01 1.942,2.62 h 0.003 l 1.98,2.62 h 0.005 l 1.987,2.56 h 0.003 l 1.946,2.48 h 0.01 l 1.87,2.34 0.9,1.11 v 0.01 l 0.86,1.05 0.82,1.01 0.77,0.95 v 0 l 0.73,0.87 0.67,0.81 v 0.01 l 0.61,0.73 v 0 l 0.54,0.65 0.01,0.01 0.48,0.57 0.39,0.47 0.33,0.38 0.23,0.28 v 0.01 l 0.15,0.16 v 0 l 0.05,0.06 v 0 l 0.34,0.4 0.05,0.05 0.36,0.35 0.04,0.03 0.39,0.3 0.04,0.03 0.39,0.25 0.05,0.04 0.4,0.2 0.05,0.02 0.41,0.16 0.08,0.03 0.82,0.19 0.12,0.02 0.82,0.03 0.11,-0.01 0.81,-0.11 0.09,-0.02 0.78,-0.24 0.09,-0.04 0.73,-0.36 0.07,-0.04 0.67,-0.47 0.07,-0.05 0.58,-0.55 0.07,-0.07 0.48,-0.63 0.05,-0.08 0.36,-0.68 0.05,-0.1 0.24,-0.74 0.02,-0.12 0.08,-0.76 0.01,-0.09 -0.02,-0.39 -0.01,-0.08 -0.06,-0.39 -0.01,-0.05 -0.11,-0.39 -0.02,-0.08 -0.16,-0.38 -0.02,-0.04 -0.36,-0.73 v 0 l -0.4,-0.82 v 0 l -0.45,-0.9 -0.01,-0.01 -0.49,-0.96 v -0.01 l -0.54,-1.04 v 0 l -0.59,-1.12 v 0 l -0.62,-1.18 -0.66,-1.25 v 0 l -0.71,-1.31 -0.74,-1.37 -0.78,-1.44 v 0 l -0.81,-1.48 v -0.01 l -0.84,-1.53 -0.87,-1.59 h -0.01 l -0.9,-1.65 -0.94,-1.69 -1.95,-3.5 -2.06,-3.67 -2.14,-3.8 -2.217,-3.93 -2.295,-4.03 -2.348,-4.11 -2.393,-4.188 -2.431,-4.223 -4.92,-8.522 -2.476,-4.261 -2.468,-4.23 -2.446,-4.179 -2.423,-4.119 -2.385,-4.027 -2.325,-3.93 -0.001,-0.002 -2.273,-3.811 -2.198,-3.669 -2.115,-3.51 L 64.384,48.617 63.357,46.93 62.36,45.287 62.358,45.285 61.384,43.696 60.439,42.151 60.437,42.147 59.515,40.663 58.63,39.231 58.629,39.229 57.774,37.857 57.772,37.854 56.947,36.542 56.16,35.289 56.157,35.286 55.4,34.101 Z"
           style="opacity:0.2;mix-blend-mode:normal;fill:#000000;fill-opacity:1;fill-rule:nonzero;stroke:none"
           id="path5547" />
        <path
           d="m 90.777,113.59 -0.086,-0.1 -0.248,-0.24 -0.1,-0.08 -0.277,-0.17 -0.086,-0.05 -0.308,-0.13 -0.118,-0.03 -0.323,-0.06 -0.108,-0.01 H 88.8 l -0.106,0.01 -0.33,0.06 -0.121,0.03 -0.308,0.13 -0.093,0.05 -0.292,0.19 -0.106,0.08 -0.247,0.26 -0.076,0.1 -0.18,0.28 -0.051,0.1 -0.12,0.31 -0.031,0.11 -0.06,0.32 -0.01,0.11 v 0.32 l 0.013,0.12 0.067,0.32 0.033,0.11 0.127,0.31 0.057,0.1 0.187,0.28 0.066,0.08 0.24,0.25 0.1,0.08 0.285,0.19 0.106,0.05 0.3,0.12 0.098,0.03 0.323,0.07 0.121,0.01 h 0.331 l 0.108,-0.01 0.323,-0.06 0.13,-0.04 0.307,-0.13 0.091,-0.05 0.292,-0.2 0.091,-0.07 0.247,-0.25 0.078,-0.09 0.18,-0.28 0.051,-0.1 0.127,-0.31 0.035,-0.11 0.06,-0.33 0.01,-0.1 v -0.33 l -0.012,-0.12 -0.067,-0.33 -0.033,-0.1 -0.128,-0.31 -0.048,-0.09 z m -0.812,0.94 -0.048,-0.1 0.127,0.31 -0.033,-0.11 0.068,0.33 -0.012,-0.12 v 0.33 l 0.01,-0.11 -0.06,0.32 0.035,-0.12 -0.128,0.31 0.051,-0.1 -0.18,0.28 0.078,-0.1 -0.248,0.25 0.091,-0.07 -0.293,0.19 0.091,-0.05 -0.308,0.14 0.13,-0.04 -0.322,0.06 0.109,-0.01 h -0.331 l 0.122,0.01 -0.322,-0.07 0.098,0.03 -0.3,-0.12 0.106,0.06 -0.285,-0.19 0.1,0.08 -0.24,-0.25 0.066,0.09 -0.188,-0.28 0.057,0.1 -0.128,-0.3 0.033,0.1 -0.068,-0.32 0.013,0.12 v -0.32 l -0.01,0.11 0.06,-0.33 -0.031,0.11 0.12,-0.31 -0.051,0.1 0.18,-0.28 -0.076,0.1 0.248,-0.26 -0.106,0.09 0.293,-0.19 -0.093,0.05 0.307,-0.13 -0.121,0.04 0.33,-0.06 -0.106,0.01 h 0.323 l -0.109,-0.01 0.322,0.06 -0.118,-0.04 0.307,0.13 -0.086,-0.05 0.278,0.18 -0.1,-0.08 0.247,0.24 -0.086,-0.11 z"
           style="opacity:0.2;fill:#000000;fill-opacity:1;fill-rule:nonzero;stroke:none"
           id="path5549" />
        <path
           d="m 52.696,155.36 -0.011,-0.12 -0.068,-0.34 -0.028,-0.1 -0.12,-0.31 -0.062,-0.12 -0.188,-0.28 -0.065,-0.08 -0.225,-0.23 -0.097,-0.09 -0.27,-0.18 -0.102,-0.05 -0.308,-0.13 -0.098,-0.03 -0.338,-0.07 -0.129,-0.02 h -0.352 l -0.116,0.01 -0.338,0.07 -0.111,0.03 -0.307,0.13 -0.111,0.06 -0.27,0.19 -0.088,0.08 -0.225,0.23 -0.068,0.08 -0.18,0.27 -0.054,0.1 -0.128,0.31 -0.03,0.1 -0.075,0.33 -0.015,0.13 v 0.34 l 0.012,0.12 0.067,0.34 0.034,0.11 0.127,0.3 0.055,0.11 0.18,0.27 0.081,0.09 0.232,0.23 0.084,0.07 0.27,0.18 0.102,0.05 0.307,0.13 0.096,0.03 0.33,0.07 0.131,0.02 h 0.353 l 0.116,-0.01 0.338,-0.07 0.099,-0.03 0.308,-0.12 0.113,-0.06 0.27,-0.18 0.097,-0.08 0.225,-0.23 0.063,-0.08 0.18,-0.26 0.059,-0.11 0.128,-0.31 0.029,-0.09 0.075,-0.32 0.016,-0.14 z m -1.187,0.34 0.016,-0.13 -0.075,0.32 0.029,-0.09 -0.127,0.31 0.059,-0.11 -0.18,0.26 0.063,-0.08 -0.225,0.24 0.097,-0.09 -0.27,0.18 0.113,-0.05 -0.307,0.12 0.099,-0.03 -0.337,0.06 0.116,-0.01 h -0.353 l 0.132,0.02 -0.33,-0.08 0.096,0.03 -0.308,-0.13 0.102,0.06 -0.27,-0.18 0.084,0.07 -0.233,-0.23 0.081,0.1 -0.18,-0.27 0.055,0.1 -0.128,-0.31 0.034,0.11 -0.068,-0.33 0.012,0.11 v -0.34 l -0.015,0.13 0.075,-0.33 -0.03,0.09 0.127,-0.3 -0.054,0.1 0.18,-0.27 -0.068,0.08 0.225,-0.23 -0.088,0.07 0.27,-0.18 -0.111,0.06 0.308,-0.13 -0.111,0.03 0.337,-0.06 -0.116,0.01 h 0.352 l -0.128,-0.02 0.337,0.08 -0.098,-0.03 0.307,0.13 -0.102,-0.06 0.27,0.18 -0.097,-0.08 0.225,0.23 -0.065,-0.08 0.187,0.28 -0.062,-0.12 0.12,0.31 -0.028,-0.09 0.067,0.34 -0.011,-0.11 z"
           style="fill:#000000;fill-opacity:1;fill-rule:nonzero;stroke:none"
           id="path5569" />
        <path
           d="m 82.361,160.71 0.542,0.64 4.012,0.34 0.641,-0.54 0.48,-5.94 -0.545,-0.64 -4.012,-0.31 -0.637,0.55 z m 1.663,-5.81 -0.637,0.55 4.012,0.31 -0.545,-0.64 -0.481,5.93 0.642,-0.54 -4.012,-0.34 0.541,0.64 z"
           style="fill:#000000;fill-opacity:1;fill-rule:nonzero;stroke:none"
           id="path5571" />
        <path
           d="m 51.945,156.21 31.22,2.2 0.084,-1.18 -31.221,-2.2 z"
           style="fill:#000000;fill-opacity:1;fill-rule:nonzero;stroke:none"
           id="path5573" />
        <path
           d="m 113.75,159.66 -0.01,-0.12 -0.07,-0.34 -0.02,-0.1 -0.12,-0.32 -0.07,-0.12 -0.18,-0.27 -0.07,-0.08 -0.22,-0.24 -0.09,-0.07 -0.27,-0.19 -0.11,-0.06 -0.3,-0.13 -0.11,-0.03 -0.32,-0.07 -0.12,-0.01 h -0.35 l -0.11,0.01 -0.35,0.07 -0.11,0.03 -0.31,0.13 -0.11,0.06 -0.28,0.18 -0.08,0.08 -0.24,0.23 -0.07,0.09 -0.18,0.27 -0.05,0.1 -0.13,0.3 -0.03,0.1 -0.08,0.33 -0.01,0.13 v 0.34 l 0.01,0.12 0.07,0.34 0.03,0.11 0.13,0.3 0.06,0.12 0.19,0.27 0.06,0.08 0.24,0.23 0.09,0.07 0.27,0.18 0.09,0.06 0.3,0.12 0.1,0.04 0.33,0.07 0.13,0.02 h 0.35 l 0.12,-0.02 0.33,-0.06 0.11,-0.04 0.31,-0.12 0.1,-0.06 0.27,-0.18 0.09,-0.07 0.24,-0.24 0.07,-0.08 0.18,-0.26 0.05,-0.11 0.13,-0.3 0.03,-0.09 0.08,-0.33 0.01,-0.13 z m -1.18,0.34 0.01,-0.13 -0.07,0.32 0.03,-0.1 -0.13,0.3 0.06,-0.1 -0.18,0.26 0.07,-0.08 -0.23,0.23 0.09,-0.08 -0.27,0.18 0.1,-0.05 -0.31,0.13 0.11,-0.04 -0.34,0.07 0.12,-0.01 h -0.35 l 0.14,0.01 -0.33,-0.07 0.1,0.03 -0.3,-0.13 0.09,0.06 -0.27,-0.18 0.09,0.07 -0.23,-0.23 0.07,0.08 -0.19,-0.27 0.06,0.11 -0.12,-0.31 0.03,0.11 -0.07,-0.33 0.01,0.11 v -0.34 l -0.01,0.13 0.07,-0.33 -0.03,0.1 0.13,-0.3 -0.05,0.1 0.18,-0.27 -0.08,0.09 0.23,-0.24 -0.08,0.08 0.27,-0.19 -0.1,0.06 0.31,-0.13 -0.11,0.03 0.35,-0.07 -0.12,0.02 h 0.35 l -0.12,-0.02 0.32,0.07 -0.11,-0.03 0.3,0.12 -0.11,-0.06 0.27,0.19 -0.09,-0.07 0.23,0.23 -0.07,-0.08 0.19,0.28 -0.06,-0.12 0.12,0.31 -0.03,-0.1 0.07,0.35 -0.01,-0.11 z"
           style="fill:#000000;fill-opacity:1;fill-rule:nonzero;stroke:none"
           id="path5575" />
        <path
           d="m 65.28,161.89 39.87,2.82 0.63,-0.55 0.68,-9.46 -0.55,-0.63 -39.868,-2.8 -0.083,1.18 39.861,2.8 -0.55,-0.64 -0.67,9.47 0.63,-0.55 -39.866,-2.83 z"
           style="fill:#000000;fill-opacity:1;fill-rule:nonzero;stroke:none"
           id="path5577" />
        <path
           d="m 109.89,159.09 -4.27,-0.28 -0.08,1.19 4.27,0.28 z"
           style="fill:#000000;fill-opacity:1;fill-rule:nonzero;stroke:none"
           id="path5579" />
        <path
           d="m 39.018,126.49 c 0,0 51.252,2.01 54.304,2.57 3.023,0.57 4.21,1.81 4.549,3.34 0.367,1.55 -0.311,3.36 -3.108,4.4 -9.013,3.34 -38.001,1.78 -40.318,11.3 -0.876,4.41 0.169,7.74 -1.187,10.03 -1.978,1.7 -4.577,1.41 -6.046,-0.37 -1.611,-1.92 -11.471,-21.72 -12.149,-24.04 -0.707,-2.34 -0.368,-6.92 3.955,-7.23 z"
           style="fill:#ffffff;fill-opacity:1;fill-rule:nonzero;stroke:none"
           id="path5587" />
        <path
           d="m 39.103,127.08 h -0.081 0.038 -0.039 l 0.112,0.01 h 0.015 l 0.18,0.01 h 0.007 l 0.247,0.01 h -0.01 l 0.315,0.01 h 0.004 l 0.375,0.02 h 0.004 l 0.442,0.01 h -0.006 l 0.495,0.02 h 0.003 l 0.562,0.03 0.61,0.02 0.661,0.02 h -0.004 l 0.712,0.03 0.767,0.03 h -0.005 l 0.803,0.04 h 0.004 l 1.741,0.07 1.897,0.07 2.024,0.08 2.152,0.09 2.251,0.09 2.324,0.1 2.391,0.11 2.446,0.1 2.46,0.11 4.941,0.21 2.438,0.11 h -0.002 l 2.393,0.11 2.333,0.11 H 77.1 l 2.243,0.11 2.145,0.1 2.034,0.1 h -0.003 l 1.89,0.1 h -0.002 l 1.732,0.1 0.803,0.04 H 87.94 l 0.757,0.04 0.004,0.01 0.713,0.03 h -0.009 l 0.66,0.05 h 0.003 l 0.608,0.03 h -0.011 l 0.555,0.05 h 0.012 l 0.495,0.03 h -0.015 l 0.435,0.04 h -0.009 l 0.375,0.03 h 0.003 l 0.315,0.03 h -0.017 l 0.24,0.03 0.18,0.02 -0.061,-0.01 1.065,0.25 -0.055,-0.01 0.893,0.3 -0.068,-0.03 0.735,0.35 -0.072,-0.04 0.607,0.4 -0.083,-0.06 0.472,0.45 -0.061,-0.07 0.368,0.49 -0.057,-0.09 0.262,0.53 -0.038,-0.1 0.165,0.56 -0.018,-0.08 0.09,0.59 -0.006,-0.11 -0.03,0.6 0.016,-0.1 -0.143,0.6 0.043,-0.12 -0.285,0.59 0.063,-0.1 -0.435,0.57 0.075,-0.09 -0.593,0.54 0.061,-0.05 -0.36,0.25 0.033,-0.03 -0.405,0.24 0.038,-0.02 -0.45,0.23 0.043,-0.02 -0.502,0.2 0.034,-0.01 -0.9,0.3 0.035,-0.01 -1.013,0.27 0.024,-0.01 -1.11,0.25 h 0.016 l -1.2,0.23 h 0.014 l -1.283,0.22 0.016,-0.01 -1.365,0.2 h 0.006 l -1.418,0.18 h 0.007 l -1.485,0.18 h 0.005 l -1.53,0.18 h 10e-4 l -1.575,0.17 -3.224,0.35 h -0.003 l -3.285,0.38 h -0.01 l -3.277,0.42 -0.014,0.01 -3.195,0.49 h -0.017 l -1.552,0.29 h -0.012 l -1.5,0.31 h -0.016 l -1.447,0.34 h -0.02 l -1.388,0.38 -0.019,0.01 -1.32,0.4 -0.029,0.01 -1.237,0.45 -0.03,0.01 -1.147,0.49 -0.036,0.02 -1.05,0.53 -0.041,0.02 -0.945,0.58 -0.047,0.03 -0.84,0.63 -0.059,0.05 -0.705,0.69 -0.049,0.06 -0.585,0.73 -0.056,0.08 -0.442,0.81 -0.042,0.09 -0.292,0.86 -0.025,0.1 -0.248,1.6 -0.005,0.05 -0.12,1.5 -0.002,0.03 -0.037,1.4 v 0.01 l -0.008,1.31 v -0.02 l -0.037,1.2 0.002,-0.04 -0.105,1.11 0.012,-0.08 -0.225,1.01 0.026,-0.09 -0.18,0.47 0.024,-0.06 -0.225,0.45 0.164,-0.2 -0.375,0.29 0.04,-0.03 -0.39,0.26 0.084,-0.05 -0.81,0.36 0.105,-0.03 -0.825,0.19 0.12,-0.02 -0.818,0.03 0.121,0.01 -0.795,-0.15 0.116,0.04 -0.75,-0.3 0.104,0.05 -0.69,-0.45 0.095,0.08 -0.6,-0.6 0.057,0.06 -0.172,-0.23 0.018,0.03 -0.217,-0.33 0.008,0.01 -0.263,-0.42 0.008,0.01 -0.3,-0.51 0.003,0.01 -0.338,-0.59 0.003,0.01 -0.367,-0.65 h 0.004 l -0.398,-0.72 -0.428,-0.78 h 0.005 l -0.443,-0.84 -0.464,-0.88 -0.982,-1.88 0.003,0.01 -1.013,-1.99 -1.034,-2.04 h 0.002 l -1.02,-2.05 -0.99,-2 0.002,0.01 -0.922,-1.9 h 0.002 l -0.428,-0.9 -0.404,-0.85 h 10e-4 l -0.375,-0.8 h -0.002 l -0.352,-0.75 0.005,0.01 -0.308,-0.68 0.003,0.01 -0.27,-0.62 -0.232,-0.53 0.005,0.01 -0.187,-0.45 h 0.002 l -0.142,-0.36 0.011,0.03 -0.09,-0.27 0.012,0.04 -0.12,-0.46 0.009,0.04 -0.09,-0.51 0.008,0.06 -0.083,-1.1 10e-4,0.07 0.023,-0.58 -0.004,0.04 0.068,-0.58 -0.009,0.05 0.12,-0.58 -0.013,0.06 0.172,-0.57 -0.022,0.06 0.232,-0.54 -0.032,0.07 0.293,-0.5 -0.044,0.06 0.36,-0.46 -0.061,0.06 0.435,-0.41 -0.071,0.06 0.51,-0.35 -0.085,0.04 0.592,-0.27 -0.087,0.03 0.675,-0.19 -0.084,0.01 z m -0.926,-1.07 -0.084,0.02 -0.675,0.19 -0.087,0.03 -0.593,0.28 -0.085,0.05 -0.51,0.35 -0.071,0.06 -0.435,0.41 -0.061,0.07 -0.36,0.46 -0.044,0.07 -0.292,0.5 -0.032,0.07 -0.233,0.54 -0.022,0.06 -0.173,0.56 -0.013,0.05 -0.12,0.58 -0.009,0.05 -0.067,0.59 -0.004,0.04 -0.022,0.58 10e-4,0.07 0.082,1.1 0.008,0.06 0.09,0.51 0.009,0.04 0.12,0.47 0.012,0.04 0.09,0.27 0.011,0.03 0.143,0.36 0.002,0.01 0.188,0.45 0.005,0.02 0.233,0.53 0.27,0.61 0.003,0.01 0.307,0.68 0.005,0.01 0.352,0.74 h -10e-4 l 0.375,0.8 10e-4,0.01 0.406,0.85 0.427,0.9 0.002,0.01 0.923,1.89 0.002,0.01 0.99,2 1.02,2.05 h 0.002 l 1.036,2.05 1.012,1.99 0.003,0.01 0.983,1.87 0.466,0.89 0.442,0.84 0.005,0.01 0.427,0.77 0.397,0.73 0.004,0.01 0.368,0.65 0.003,0.01 0.337,0.58 0.003,0.01 0.3,0.51 0.008,0.01 0.262,0.42 0.008,0.01 0.218,0.33 0.018,0.03 0.173,0.23 0.057,0.07 0.6,0.6 0.095,0.07 0.69,0.45 0.104,0.06 0.75,0.3 0.116,0.03 0.795,0.14 0.121,0.01 0.817,-0.02 0.12,-0.01 0.825,-0.2 0.105,-0.04 0.81,-0.36 0.084,-0.04 0.39,-0.26 0.04,-0.02 0.375,-0.3 0.164,-0.2 0.225,-0.44 0.024,-0.05 0.18,-0.47 0.026,-0.08 0.225,-1.01 0.012,-0.07 0.105,-1.1 0.002,-0.04 0.038,-1.2 v -0.02 l 0.007,-1.3 v 0.01 l 0.038,-1.4 -0.002,0.03 0.12,-1.5 -0.005,0.04 0.247,-1.6 -0.025,0.1 0.293,-0.86 -0.042,0.1 0.443,-0.8 -0.056,0.08 0.585,-0.74 -0.049,0.06 0.705,-0.69 -0.059,0.05 0.84,-0.63 -0.047,0.03 0.945,-0.58 -0.041,0.03 1.05,-0.54 -0.036,0.02 1.148,-0.49 -0.03,0.02 1.238,-0.45 h -0.029 l 1.32,-0.4 -0.019,0.01 1.387,-0.38 -0.02,0.01 1.448,-0.34 h -0.016 l 1.5,-0.31 -0.012,0.01 1.553,-0.29 h -0.017 l 3.195,-0.49 h -0.014 l 3.278,-0.43 h -0.01 l 3.285,-0.37 h -0.003 l 3.226,-0.35 1.575,-0.18 h 10e-4 l 1.53,-0.17 h 0.005 l 1.485,-0.18 h 0.007 l 1.417,-0.19 h 0.006 l 1.365,-0.19 h 0.016 l 1.282,-0.22 h 0.014 l 1.2,-0.24 h 0.016 l 1.11,-0.25 h 0.024 l 1.012,-0.27 0.035,-0.01 0.9,-0.3 0.034,-0.02 0.503,-0.2 0.043,-0.02 0.45,-0.22 0.038,-0.02 0.405,-0.24 0.033,-0.03 0.36,-0.24 0.061,-0.05 0.592,-0.53 0.075,-0.08 0.435,-0.57 0.063,-0.11 0.285,-0.59 0.043,-0.12 0.142,-0.6 0.016,-0.11 0.03,-0.61 -0.006,-0.11 -0.09,-0.6 -0.018,-0.07 -0.165,-0.57 -0.038,-0.1 -0.263,-0.52 -0.057,-0.09 -0.367,-0.49 -0.061,-0.07 -0.473,-0.46 -0.083,-0.06 -0.608,-0.41 -0.072,-0.04 -0.735,-0.35 -0.068,-0.03 -0.892,-0.3 -0.055,-0.02 -1.065,-0.24 -0.061,-0.01 -0.18,-0.03 -0.24,-0.03 h -0.017 l -0.315,-0.03 h 0.003 l -0.375,-0.04 h -0.009 l -0.435,-0.03 h -0.015 l -0.495,-0.03 h 0.012 l -0.555,-0.05 h -0.011 l -0.607,-0.04 h 0.003 l -0.66,-0.04 h -0.009 l -0.712,-0.04 h 0.004 l -0.758,-0.04 h -0.002 l -0.802,-0.05 -1.733,-0.1 h -0.002 l -1.89,-0.09 h -0.003 l -2.031,-0.1 -2.145,-0.11 -2.242,-0.11 h -0.003 l -2.332,-0.1 -2.392,-0.12 h -0.002 l -2.437,-0.1 -4.944,-0.22 -2.46,-0.11 -2.444,-0.1 -2.394,-0.11 -2.326,-0.09 -2.249,-0.09 -2.153,-0.09 -2.026,-0.09 -1.898,-0.07 -1.74,-0.07 h 0.005 l -0.802,-0.03 -0.005,-0.01 -0.763,-0.03 -0.713,-0.03 h -0.004 l -0.659,-0.02 -0.605,-0.02 -0.563,-0.02 h 0.003 l -0.495,-0.02 -0.006,-0.01 -0.443,-0.01 h 0.004 l -0.375,-0.02 0.004,0.01 -0.315,-0.02 h -0.01 l -0.248,-0.01 h 0.007 l -0.18,-0.01 0.015,0.01 -0.113,-0.01 h -0.039 -0.038 -0.08 z"
           style="fill:#000000;fill-opacity:1;fill-rule:nonzero;stroke:none"
           id="path5589" />
        <path
           d="m 41.65,131.44 0.023,-0.1 0.045,-0.34 0.004,-0.12 -0.023,-0.33 -0.02,-0.12 -0.09,-0.32 -0.044,-0.11 -0.15,-0.29 -0.063,-0.1 -0.202,-0.26 -0.066,-0.07 -0.247,-0.22 -0.114,-0.08 -0.3,-0.17 -0.106,-0.04 -0.33,-0.11 -0.114,-0.02 -0.337,-0.04 h -0.12 l -0.33,0.03 -0.121,0.02 -0.315,0.1 -0.101,0.04 -0.285,0.15 -0.093,0.06 -0.255,0.21 -0.077,0.07 -0.217,0.25 -0.068,0.09 -0.165,0.29 -0.051,0.11 -0.105,0.32 -0.024,0.11 -0.045,0.34 -0.004,0.12 0.023,0.34 0.021,0.12 0.09,0.32 0.038,0.1 0.142,0.29 0.069,0.11 0.202,0.26 0.073,0.07 0.248,0.22 0.1,0.07 0.292,0.17 0.108,0.04 0.323,0.11 0.119,0.03 0.345,0.03 h 0.117 l 0.338,-0.03 0.11,-0.02 0.315,-0.09 0.097,-0.03 0.292,-0.15 0.103,-0.06 0.262,-0.2 0.09,-0.09 0.21,-0.25 0.068,-0.09 0.165,-0.3 0.045,-0.11 z m -1.235,-0.03 0.045,-0.11 -0.165,0.3 0.068,-0.09 -0.21,0.24 0.09,-0.08 -0.263,0.2 0.103,-0.06 -0.293,0.14 0.097,-0.04 -0.315,0.09 0.11,-0.02 -0.337,0.03 h 0.117 l -0.345,-0.03 0.119,0.02 -0.322,-0.1 0.108,0.04 -0.293,-0.16 0.1,0.07 -0.247,-0.22 0.073,0.08 -0.203,-0.26 0.069,0.11 -0.143,-0.29 0.038,0.1 -0.09,-0.32 0.021,0.12 -0.022,-0.34 -0.004,0.12 0.045,-0.35 -0.024,0.11 0.105,-0.32 -0.051,0.11 0.165,-0.29 -0.068,0.1 0.218,-0.25 -0.077,0.07 0.255,-0.2 -0.093,0.06 0.285,-0.15 -0.101,0.04 0.315,-0.09 -0.121,0.02 0.33,-0.03 h -0.12 l 0.338,0.04 -0.114,-0.03 0.33,0.11 -0.106,-0.05 0.3,0.17 -0.114,-0.08 0.248,0.22 -0.066,-0.07 0.203,0.26 -0.063,-0.1 0.15,0.29 -0.044,-0.11 0.09,0.32 -0.02,-0.12 0.022,0.33 0.004,-0.12 -0.045,0.34 0.023,-0.1 z"
           style="fill:#000000;fill-opacity:1;fill-rule:nonzero;stroke:none"
           id="path5591" />
        <path
           d="m 52.608,155.88 0.032,-0.14 0.037,-0.34 10e-4,-0.12 -0.03,-0.33 -0.024,-0.13 -0.097,-0.31 -0.039,-0.1 -0.15,-0.29 -0.058,-0.09 -0.203,-0.26 -0.078,-0.09 -0.247,-0.22 -0.1,-0.07 -0.293,-0.16 -0.108,-0.05 -0.322,-0.1 -0.12,-0.03 -0.345,-0.04 h -0.117 l -0.337,0.03 -0.111,0.02 -0.315,0.09 -0.107,0.04 -0.293,0.15 -0.091,0.06 -0.263,0.21 -0.09,0.08 -0.21,0.25 -0.064,0.09 -0.165,0.29 -0.048,0.11 -0.105,0.32 -0.025,0.12 -0.038,0.35 -10e-4,0.12 0.03,0.33 0.02,0.11 0.09,0.32 0.038,0.1 0.142,0.29 0.064,0.1 0.202,0.26 0.086,0.09 0.248,0.21 0.092,0.07 0.292,0.16 0.112,0.05 0.33,0.11 0.114,0.02 0.338,0.04 h 0.119 l 0.33,-0.03 0.11,-0.02 0.315,-0.09 0.096,-0.04 0.293,-0.14 0.109,-0.07 0.255,-0.2 0.077,-0.08 0.217,-0.24 0.066,-0.09 0.172,-0.3 0.047,-0.09 z m -1.236,-0.08 0.047,-0.1 -0.173,0.29 0.066,-0.09 -0.218,0.25 0.077,-0.07 -0.255,0.2 0.109,-0.07 -0.292,0.14 0.096,-0.03 -0.315,0.09 0.11,-0.02 -0.33,0.03 h 0.119 l -0.337,-0.04 0.114,0.02 -0.33,-0.1 0.112,0.05 -0.293,-0.17 0.092,0.07 -0.247,-0.21 0.086,0.09 -0.203,-0.26 0.064,0.1 -0.143,-0.29 0.038,0.09 -0.09,-0.31 0.02,0.11 -0.03,-0.34 -10e-4,0.12 0.037,-0.35 -0.025,0.12 0.105,-0.32 -0.048,0.11 0.165,-0.3 -0.064,0.1 0.21,-0.25 -0.09,0.08 0.262,-0.2 -0.091,0.06 0.292,-0.15 -0.107,0.04 0.315,-0.09 -0.111,0.02 0.338,-0.03 h -0.117 l 0.345,0.04 -0.12,-0.03 0.323,0.11 -0.108,-0.05 0.292,0.17 -0.1,-0.07 0.248,0.21 -0.078,-0.08 0.202,0.26 -0.058,-0.09 0.15,0.29 -0.039,-0.09 0.098,0.31 -0.025,-0.12 0.031,0.34 10e-4,-0.12 -0.038,0.34 0.032,-0.14 z"
           style="fill:#000000;fill-opacity:1;fill-rule:nonzero;stroke:none"
           id="path5593" />
        <path
           d="m 95.868,133.5 0.024,-0.11 0.038,-0.34 10e-4,-0.12 -0.03,-0.33 -0.021,-0.11 -0.089,-0.31 -0.04,-0.11 -0.143,-0.28 -0.061,-0.1 -0.202,-0.26 -0.078,-0.08 -0.248,-0.22 -0.09,-0.07 -0.293,-0.17 -0.11,-0.05 -0.33,-0.11 -0.125,-0.03 -0.338,-0.04 h -0.119 l -0.33,0.03 -0.122,0.03 -0.315,0.09 -0.095,0.04 -0.293,0.15 -0.098,0.07 -0.255,0.2 -0.077,0.07 -0.217,0.25 -0.062,0.08 -0.173,0.29 -0.052,0.11 -0.113,0.32 -0.029,0.13 -0.038,0.35 -0.001,0.12 0.03,0.33 0.019,0.11 0.091,0.32 0.043,0.11 0.15,0.3 0.063,0.09 0.203,0.26 0.081,0.08 0.247,0.21 0.092,0.07 0.293,0.16 0.108,0.05 0.322,0.1 0.12,0.03 0.345,0.04 h 0.103 l 0.338,-0.02 0.124,-0.02 0.315,-0.09 0.107,-0.05 0.293,-0.15 0.083,-0.05 0.262,-0.19 0.099,-0.1 0.21,-0.24 0.067,-0.1 0.165,-0.3 0.046,-0.11 z m -1.236,-0.03 0.046,-0.1 -0.165,0.3 0.067,-0.1 -0.21,0.25 0.099,-0.1 -0.263,0.2 0.083,-0.05 -0.292,0.15 0.107,-0.05 -0.315,0.09 0.124,-0.02 -0.337,0.03 h 0.103 l -0.345,-0.04 0.12,0.03 -0.323,-0.11 0.108,0.05 -0.292,-0.17 0.092,0.07 -0.248,-0.21 0.081,0.08 -0.202,-0.25 0.063,0.09 -0.15,-0.29 0.043,0.11 -0.09,-0.32 0.02,0.11 -0.03,-0.34 -10e-4,0.12 0.037,-0.35 -0.029,0.13 0.112,-0.32 -0.052,0.11 0.172,-0.28 -0.062,0.08 0.218,-0.25 -0.077,0.08 0.255,-0.21 -0.098,0.07 0.292,-0.15 -0.095,0.04 0.315,-0.1 -0.122,0.02 0.33,-0.03 h -0.119 l 0.337,0.04 -0.125,-0.03 0.33,0.11 -0.11,-0.05 0.292,0.18 -0.09,-0.07 0.247,0.22 -0.078,-0.08 0.203,0.26 -0.061,-0.1 0.142,0.29 -0.039,-0.11 0.09,0.32 -0.021,-0.11 0.03,0.33 0.001,-0.12 -0.037,0.34 0.024,-0.12 z"
           style="fill:#000000;fill-opacity:1;fill-rule:nonzero;stroke:none"
           id="path5595" />
        <path
           d="M 93.729,131.41 90.14,116.72 88.988,117 92.576,131.69 Z"
           style="opacity:0.2;fill:#000000;fill-opacity:1;fill-rule:nonzero;stroke:none"
           id="path5597" />
        <path
           d="m 54.925,68.916 c 0,-1.808 -1.441,-3.249 -3.249,-3.249 -1.78,0 -3.249,1.441 -3.249,3.249 0,1.779 1.469,3.22 3.249,3.22 1.808,0 3.249,-1.441 3.249,-3.22 z"
           style="fill:#ffffff;fill-opacity:1;fill-rule:nonzero;stroke:none"
           id="path5627" />
        <path
           d="m 54.925,68.916 c 0,-1.808 -1.441,-3.249 -3.249,-3.249 -1.78,0 -3.249,1.441 -3.249,3.249 0,1.779 1.469,3.22 3.249,3.22 1.808,0 3.249,-1.441 3.249,-3.22 z"
           style="fill:none;stroke:#000000;stroke-width:0.7911;stroke-linecap:butt;stroke-linejoin:miter;stroke-miterlimit:8;stroke-dasharray:none;stroke-opacity:1"
           id="path5629" />
        <path
           d="m 54.925,68.916 c 0,-1.808 -1.441,-3.249 -3.249,-3.249 v 3.249 z"
           style="fill:#000000;fill-opacity:1;fill-rule:nonzero;stroke:none"
           id="path5631" />
        <path
           d="m 54.925,68.916 c 0,-1.808 -1.441,-3.249 -3.249,-3.249 v 3.249 z"
           style="fill:none;stroke:#000000;stroke-width:0.7911;stroke-linecap:butt;stroke-linejoin:miter;stroke-miterlimit:8;stroke-dasharray:none;stroke-opacity:1"
           id="path5633" />
        <path
           d="m 48.427,68.916 c 0,1.779 1.469,3.22 3.249,3.22 v -3.22 z"
           style="fill:#000000;fill-opacity:1;fill-rule:nonzero;stroke:none"
           id="path5635" />
        <path
           d="m 48.427,68.916 c 0,1.779 1.469,3.22 3.249,3.22 v -3.22 z"
           style="fill:none;stroke:#000000;stroke-width:0.7911;stroke-linecap:butt;stroke-linejoin:miter;stroke-miterlimit:8;stroke-dasharray:none;stroke-opacity:1"
           id="path5637" />
      </g>
    </g>
    <path
       d="m 100.6524,36.98608 0.13507,-0.247948 1.29922,-0.385181 0.24804,0.134458 0.56271,1.926249 -0.13606,0.248153 -1.30127,0.375288 -0.24742,-0.138029 z m 0.94375,1.802865 -0.24739,-0.138029 1.30127,-0.375285 -0.13606,0.248154 -0.56235,-1.922884 0.24837,0.13439 -1.29922,0.385178 0.13474,-0.247882 z"
       style="fill:#000000;fill-opacity:1;fill-rule:nonzero;stroke:none;stroke-width:0.336651"
       id="path5571-3" />
    <path
       d="m 90.933532,40.540192 10.140488,-2.850327 0.10806,0.383422 -10.140809,2.850396 z"
       style="fill:#000000;fill-opacity:1;fill-rule:nonzero;stroke:none;stroke-width:0.336651"
       id="path5573-0" />
    <path
       d="m 111.06989,35.19605 0.006,0.0402 1.3e-4,0.116901 -4e-4,0.03435 -0.0177,0.113708 -0.0148,0.04437 -0.0409,0.101304 -0.0176,0.03116 -0.0561,0.09411 -0.0249,0.02922 -0.0761,0.08104 -0.0322,0.02726 -0.09,0.06329 -0.0342,0.01737 -0.10078,0.04485 -0.0389,0.01149 -0.11537,0.02383 -0.0369,0.0042 -0.12014,7.4e-4 -0.0382,-0.0023 -0.11102,-0.0218 -0.0404,-0.01227 -0.10452,-0.04031 -0.0319,-0.02095 -0.0948,-0.05951 -0.0292,-0.0249 -0.0777,-0.07678 -0.0232,-0.02957 -0.0633,-0.0901 -0.0167,-0.03092 -0.0489,-0.1034 -0.0118,-0.04227 -0.0231,-0.112128 -0.006,-0.0402 -1.3e-4,-0.1169 0.002,-0.03837 0.022,-0.10782 0.0117,-0.04365 0.0443,-0.101979 0.0143,-0.03048 0.0634,-0.0922 0.0248,-0.02922 0.0768,-0.07775 0.0255,-0.02592 0.0907,-0.05999 0.0303,-0.01999 0.10399,-0.04555 0.0415,-0.01542 0.11536,-0.02382 0.0409,-0.0017 0.11284,-0.0027 0.0389,0.0057 0.11034,0.01848 0.0371,0.01296 0.10127,0.04097 0.0344,0.01695 0.0955,0.06282 0.0286,0.02161 0.077,0.07349 0.0239,0.03287 0.0634,0.09008 0.016,0.02765 0.0489,0.103399 0.0118,0.04227 z m -0.41209,-0.03182 0.0118,0.04227 -0.0449,-0.100746 0.0167,0.03094 -0.0634,-0.09008 0.0265,0.02888 -0.077,-0.07349 0.0286,0.02161 -0.0914,-0.0602 0.0352,0.02026 -0.10128,-0.04097 0.0363,0.0097 -0.11101,-0.0218 0.0389,0.0057 -0.11684,4.6e-5 0.0403,-0.0049 -0.11537,0.02383 0.0454,-0.01286 -0.10399,0.04555 0.031,-0.01671 -0.09,0.0633 0.0255,-0.02592 -0.0768,0.07773 0.0249,-0.02922 -0.0601,0.09151 0.0176,-0.03116 -0.0442,0.101959 0.0123,-0.04036 -0.0183,0.110423 0.002,-0.03836 -7.6e-4,0.113595 -0.004,-0.03683 0.0231,0.112127 -0.0118,-0.04227 0.0456,0.104051 -0.0167,-0.03092 0.0634,0.09008 -0.0232,-0.02956 0.0777,0.07679 -0.0324,-0.02423 0.0921,0.06349 -0.0319,-0.02094 0.10197,0.04427 -0.037,-0.01295 0.11103,0.0218 -0.0382,-0.0023 0.12013,-7.4e-4 -0.0409,0.0017 0.11535,-0.02382 -0.0382,0.01473 0.10078,-0.04485 -0.0342,0.01737 0.0907,-0.05999 -0.0322,0.02726 0.0761,-0.08104 -0.0249,0.02922 0.0601,-0.09151 -0.0176,0.03116 0.0435,-0.105291 -0.0117,0.04365 0.0183,-0.110424 -0.004,0.03497 -0.001,-0.120204 0.004,0.03683 z"
       style="fill:#000000;fill-opacity:1;fill-rule:nonzero;stroke:none;stroke-width:0.336651"
       id="path5575-7" />
    <path
       d="m 94.942043,37.75945 12.949357,-3.643503 0.2451,0.138503 0.86833,3.073479 -0.13839,0.245196 -12.950059,3.636773 -0.107707,-0.383497 12.947746,-3.636296 -0.13769,0.248493 -0.86571,-3.077455 0.2451,0.138504 -12.947352,3.646528 z"
       style="fill:#000000;fill-opacity:1;fill-rule:nonzero;stroke:none;stroke-width:0.336651"
       id="path5577-8" />
    <path
       d="m 109.83643,35.646736 -1.38835,0.382952 -0.10737,-0.387003 1.38833,-0.382954 z"
       style="fill:#000000;fill-opacity:1;fill-rule:nonzero;stroke:none;stroke-width:0.336651"
       id="path5579-6" />
    <path
       d="m 91.174533,40.603897 0.02008,0.04398 0.03534,0.109609 0.0085,0.0395 0.01257,0.110871 9.07e-4,0.04451 -0.01093,0.108831 -0.0061,0.03562 -0.02969,0.10584 -0.01301,0.03363 -0.0492,0.09956 -0.01957,0.03499 -0.06643,0.08936 -0.02819,0.02989 -0.08568,0.07271 -0.03219,0.02384 -0.09933,0.05489 -0.03751,0.01806 -0.11099,0.03667 -0.03856,0.0079 -0.113121,0.01305 -0.03794,9.48e-4 -0.109953,-0.0082 -0.03799,-0.0059 -0.106786,-0.02953 -0.03408,-0.01358 -0.100991,-0.05135 -0.03511,-0.02026 -0.08624,-0.06815 -0.02722,-0.02534 -0.07413,-0.0844 -0.0233,-0.03301 -0.05639,-0.09838 -0.0164,-0.03787 -0.03636,-0.112838 -0.0085,-0.03951 -0.01258,-0.110873 -9.88e-4,-0.03764 0.0079,-0.111658 0.0057,-0.03556 0.02706,-0.105295 0.0143,-0.03733 0.04887,-0.09949 0.02221,-0.03554 0.06745,-0.08613 0.02555,-0.02934 0.08535,-0.07264 0.03352,-0.02412 0.101286,-0.05873 0.03622,-0.01432 0.108684,-0.0362 0.03923,-0.0081 0.11081,-0.01257 0.03762,-9.91e-4 0.109953,0.0083 0.03437,0.0067 0.106106,0.02622 0.04069,0.01566 0.09767,0.04861 0.03083,0.02114 0.08787,0.06438 0.02788,0.02519 0.07712,0.08724 0.02163,0.02649 z m -0.401946,0.110504 0.0223,0.02977 -0.07677,-0.08386 0.02788,0.02519 -0.08888,-0.06761 0.03014,0.01785 -0.09767,-0.0486 0.0407,0.01566 -0.105781,-0.0263 0.03369,0.0033 -0.109953,-0.0083 0.03762,-9.9e-4 -0.110812,0.01257 0.03922,-0.0081 -0.108352,0.03612 0.03622,-0.01432 -0.10196,0.05544 0.03351,-0.02412 -0.085,0.07601 0.02555,-0.02934 -0.06712,0.08607 0.02222,-0.03554 -0.04921,0.09956 0.0143,-0.03734 -0.02739,0.105366 0.0064,-0.03227 -0.0085,0.108361 -9.88e-4,-0.03764 0.01326,0.114169 -0.0085,-0.03951 0.03603,0.112907 -0.0164,-0.03787 0.0564,0.09839 -0.02331,-0.03301 0.0748,0.0877 -0.0279,-0.02862 0.08625,0.06815 -0.03511,-0.02025 0.09998,0.04812 -0.03408,-0.01358 0.106465,0.02959 -0.038,-0.0059 0.109953,0.0083 -0.03794,9.48e-4 0.113451,-0.01312 -0.03856,0.0079 0.110989,-0.03667 -0.03751,0.01807 0.09898,-0.05825 -0.0322,0.02384 0.08467,-0.07594 -0.0282,0.02989 0.06745,-0.08614 -0.02026,0.03169 0.04888,-0.09949 -0.01301,0.03363 0.02969,-0.105841 -0.0068,0.03234 0.01124,-0.108898 -8.6e-5,0.04127 -0.01294,-0.114236 0.0085,0.03951 -0.03567,-0.10954 0.02008,0.04398 z"
       style="fill:#000000;fill-opacity:1;fill-rule:nonzero;stroke:none;stroke-width:0.336651"
       id="path5593-8" />
    <g
       transform="matrix(0.352778,0,0,0.352778,36.2852,32.6991)"
       ns14:version="1.1.0"
       ns14:texconverter="pdflatex"
       ns14:pdfconverter="inkscape"
       ns14:text="$O_{34}$"
       ns14:preamble="/usr/share/inkscape/extensions/textext/default_packages.tex"
       ns14:scale="1.0"
       ns14:alignment="middle center"
       ns14:jacobian_sqrt="0.352778"
       id="g11162">
      <defs
         id="id-b7c50772-b33d-4c3d-a90d-a1830bfb130c">
        <g
           id="id-2dfc495b-dfab-41df-84a8-a8dea1a35d5d">
          <symbol
             overflow="visible"
             id="id-a78d2dfc-055e-4a17-bbe9-1e572f2f7312">
            <path
               style="stroke:none"
               d=""
               id="id-75146d71-19a2-488c-b1c8-f4ef248b782b" />
          </symbol>
          <symbol
             overflow="visible"
             id="id-4dc28e59-15c1-4cb0-a36d-6c3095578674">
            <path
               style="stroke:none"
               d="m 7.375,-4.34375 c 0,-1.609375 -1.0625,-2.6875 -2.546875,-2.6875 -2.140625,0 -4.34375,2.265625 -4.34375,4.59375 0,1.65625 1.125,2.65625 2.5625,2.65625 2.109375,0 4.328125,-2.1875 4.328125,-4.5625 z m -4.28125,4.296875 c -0.984375,0 -1.671875,-0.796875 -1.671875,-2.109375 0,-0.453125 0.140625,-1.90625 0.90625,-3.0625 0.6875,-1.046875 1.65625,-1.5625 2.453125,-1.5625 0.8125,0 1.703125,0.5625 1.703125,2.046875 0,0.71875 -0.265625,2.265625 -1.25,3.5 C 4.75,-0.625 3.9375,-0.046875 3.09375,-0.046875 Z m 0,0"
               id="id-f92e7144-80d7-47b4-b4db-18df58f2bea8" />
          </symbol>
          <symbol
             overflow="visible"
             id="id-caedb83d-1ae0-4793-ac7d-3b5e556d8406">
            <path
               style="stroke:none"
               d=""
               id="id-17666e93-473f-4c6d-9156-2dec0e173fb1" />
          </symbol>
          <symbol
             overflow="visible"
             id="id-d1d03e09-19d2-4f23-8791-3ca82544964b">
            <path
               style="stroke:none"
               d="m 1.90625,-2.328125 c 0.546875,0 0.9375,0.375 0.9375,1.125 0,0.859375 -0.515625,1.125 -0.90625,1.125 -0.28125,0 -0.90625,-0.078125 -1.1875,-0.5 0.328125,0 0.40625,-0.234375 0.40625,-0.390625 0,-0.21875 -0.171875,-0.375 -0.390625,-0.375 -0.1875,0 -0.390625,0.125 -0.390625,0.40625 0,0.65625 0.71875,1.078125 1.5625,1.078125 0.96875,0 1.640625,-0.65625 1.640625,-1.34375 0,-0.546875 -0.4375,-1.09375 -1.203125,-1.25 0.71875,-0.265625 0.984375,-0.78125 0.984375,-1.21875 0,-0.546875 -0.625,-0.953125 -1.40625,-0.953125 -0.765625,0 -1.359375,0.375 -1.359375,0.9375 0,0.234375 0.15625,0.359375 0.359375,0.359375 0.21875,0 0.359375,-0.15625 0.359375,-0.34375 0,-0.203125 -0.140625,-0.359375 -0.359375,-0.375 0.25,-0.296875 0.71875,-0.375 0.984375,-0.375 0.3125,0 0.75,0.15625 0.75,0.75 0,0.296875 -0.09375,0.625 -0.28125,0.828125 -0.21875,0.265625 -0.421875,0.28125 -0.765625,0.3125 -0.171875,0.015625 -0.1875,0.015625 -0.21875,0.015625 -0.015625,0 -0.078125,0.015625 -0.078125,0.09375 0,0.09375 0.0625,0.09375 0.1875,0.09375 z m 0,0"
               id="id-3e9687cf-5e8e-41ba-8c2c-fd8b0961311b" />
          </symbol>
          <symbol
             overflow="visible"
             id="id-8de4a01e-1e3b-42b5-a5e7-97bb81ffd721">
            <path
               style="stroke:none"
               d="m 3.6875,-1.140625 v -0.25 H 2.90625 V -4.5 c 0,-0.140625 0,-0.203125 -0.140625,-0.203125 -0.09375,0 -0.125,0 -0.1875,0.109375 l -2.3125,3.203125 v 0.25 h 2.0625 v 0.5625 c 0,0.25 0,0.328125 -0.578125,0.328125 H 1.5625 V 0 C 1.921875,-0.015625 2.359375,-0.03125 2.609375,-0.03125 2.875,-0.03125 3.3125,-0.015625 3.671875,0 v -0.25 h -0.1875 C 2.90625,-0.25 2.90625,-0.328125 2.90625,-0.578125 v -0.5625 z M 2.375,-3.9375 v 2.546875 H 0.53125 Z m 0,0"
               id="id-10b0784d-adef-472e-a52f-419748cbf996" />
          </symbol>
        </g>
      </defs>
      <g
         id="id-1302fbfe-da6f-4bfb-b8dd-779c7f0bf342"
         transform="translate(-149.196,-127.734)">
        <g
           style="fill:#000000;fill-opacity:1"
           id="id-9f6cea0c-ea26-40bc-b17c-9162f8599a60">
          <g
             transform="translate(148.712,134.765)"
             id="g11151">
            <path
               style="stroke:none"
               d="m 7.375,-4.34375 c 0,-1.609375 -1.0625,-2.6875 -2.546875,-2.6875 -2.140625,0 -4.34375,2.265625 -4.34375,4.59375 0,1.65625 1.125,2.65625 2.5625,2.65625 2.109375,0 4.328125,-2.1875 4.328125,-4.5625 z m -4.28125,4.296875 c -0.984375,0 -1.671875,-0.796875 -1.671875,-2.109375 0,-0.453125 0.140625,-1.90625 0.90625,-3.0625 0.6875,-1.046875 1.65625,-1.5625 2.453125,-1.5625 0.8125,0 1.703125,0.5625 1.703125,2.046875 0,0.71875 -0.265625,2.265625 -1.25,3.5 C 4.75,-0.625 3.9375,-0.046875 3.09375,-0.046875 Z m 0,0"
               id="id-08ce274b-2c56-4179-8dfe-e265efbf6e94" />
          </g>
        </g>
        <g
           style="fill:#000000;fill-opacity:1"
           id="id-7abf3c46-e473-417d-a2c8-319ab0986cd3">
          <g
             transform="translate(156.312,136.259)"
             id="g11155">
            <path
               style="stroke:none"
               d="m 1.90625,-2.328125 c 0.546875,0 0.9375,0.375 0.9375,1.125 0,0.859375 -0.515625,1.125 -0.90625,1.125 -0.28125,0 -0.90625,-0.078125 -1.1875,-0.5 0.328125,0 0.40625,-0.234375 0.40625,-0.390625 0,-0.21875 -0.171875,-0.375 -0.390625,-0.375 -0.1875,0 -0.390625,0.125 -0.390625,0.40625 0,0.65625 0.71875,1.078125 1.5625,1.078125 0.96875,0 1.640625,-0.65625 1.640625,-1.34375 0,-0.546875 -0.4375,-1.09375 -1.203125,-1.25 0.71875,-0.265625 0.984375,-0.78125 0.984375,-1.21875 0,-0.546875 -0.625,-0.953125 -1.40625,-0.953125 -0.765625,0 -1.359375,0.375 -1.359375,0.9375 0,0.234375 0.15625,0.359375 0.359375,0.359375 0.21875,0 0.359375,-0.15625 0.359375,-0.34375 0,-0.203125 -0.140625,-0.359375 -0.359375,-0.375 0.25,-0.296875 0.71875,-0.375 0.984375,-0.375 0.3125,0 0.75,0.15625 0.75,0.75 0,0.296875 -0.09375,0.625 -0.28125,0.828125 -0.21875,0.265625 -0.421875,0.28125 -0.765625,0.3125 -0.171875,0.015625 -0.1875,0.015625 -0.21875,0.015625 -0.015625,0 -0.078125,0.015625 -0.078125,0.09375 0,0.09375 0.0625,0.09375 0.1875,0.09375 z m 0,0"
               id="id-4082bdf8-819c-49e3-b923-406dc0704e05" />
          </g>
          <g
             transform="translate(160.284,136.259)"
             id="g11158">
            <path
               style="stroke:none"
               d="m 3.6875,-1.140625 v -0.25 H 2.90625 V -4.5 c 0,-0.140625 0,-0.203125 -0.140625,-0.203125 -0.09375,0 -0.125,0 -0.1875,0.109375 l -2.3125,3.203125 v 0.25 h 2.0625 v 0.5625 c 0,0.25 0,0.328125 -0.578125,0.328125 H 1.5625 V 0 C 1.921875,-0.015625 2.359375,-0.03125 2.609375,-0.03125 2.875,-0.03125 3.3125,-0.015625 3.671875,0 v -0.25 h -0.1875 C 2.90625,-0.25 2.90625,-0.328125 2.90625,-0.578125 v -0.5625 z M 2.375,-3.9375 v 2.546875 H 0.53125 Z m 0,0"
               id="id-b8e9115c-7fe3-433c-a736-51d88f5af081" />
          </g>
        </g>
      </g>
    </g>
    <g
       transform="matrix(0.352778,0,0,0.352778,62.6258,32.357)"
       ns14:version="1.1.0"
       ns14:texconverter="pdflatex"
       ns14:pdfconverter="inkscape"
       ns14:text="$O_{12}$"
       ns14:preamble="/usr/share/inkscape/extensions/textext/default_packages.tex"
       ns14:scale="1.0000000566928784"
       ns14:alignment="middle center"
       ns14:jacobian_sqrt="0.352778"
       id="g11676">
      <defs
         id="id-b596a771-7824-452c-bd5e-acd65aa91984">
        <g
           id="id-decce06b-b613-42f0-a6c9-1fe65c11584c">
          <symbol
             overflow="visible"
             id="id-d7127052-548c-434b-a6b6-0f9baeebf07e">
            <path
               style="stroke:none"
               d=""
               id="id-a6d8bbb6-4a8d-47df-83a8-898d9e63a431" />
          </symbol>
          <symbol
             overflow="visible"
             id="id-2be57c6c-2a16-4650-bb16-e170bd02c63a">
            <path
               style="stroke:none"
               d="m 7.375,-4.34375 c 0,-1.609375 -1.0625,-2.6875 -2.546875,-2.6875 -2.140625,0 -4.34375,2.265625 -4.34375,4.59375 0,1.65625 1.125,2.65625 2.5625,2.65625 2.109375,0 4.328125,-2.1875 4.328125,-4.5625 z m -4.28125,4.296875 c -0.984375,0 -1.671875,-0.796875 -1.671875,-2.109375 0,-0.453125 0.140625,-1.90625 0.90625,-3.0625 0.6875,-1.046875 1.65625,-1.5625 2.453125,-1.5625 0.8125,0 1.703125,0.5625 1.703125,2.046875 0,0.71875 -0.265625,2.265625 -1.25,3.5 C 4.75,-0.625 3.9375,-0.046875 3.09375,-0.046875 Z m 0,0"
               id="id-41ee89ec-c34f-41c2-aa65-8926f1f4aac3" />
          </symbol>
          <symbol
             overflow="visible"
             id="id-02ac6fd7-1469-487c-a7e9-c145bc39dbb4">
            <path
               style="stroke:none"
               d=""
               id="id-73197be6-9e5a-4a4a-90e2-7619d839933c" />
          </symbol>
          <symbol
             overflow="visible"
             id="id-c1a42127-0160-4ec1-84ff-d1996f270e72">
            <path
               style="stroke:none"
               d="m 2.328125,-4.4375 c 0,-0.1875 0,-0.1875 -0.203125,-0.1875 -0.453125,0.4375 -1.078125,0.4375 -1.359375,0.4375 v 0.25 c 0.15625,0 0.625,0 1,-0.1875 v 3.546875 c 0,0.234375 0,0.328125 -0.6875,0.328125 H 0.8125 V 0 c 0.125,0 0.984375,-0.03125 1.234375,-0.03125 0.21875,0 1.09375,0.03125 1.25,0.03125 V -0.25 H 3.03125 c -0.703125,0 -0.703125,-0.09375 -0.703125,-0.328125 z m 0,0"
               id="id-3a0aa9f0-8b30-45b8-909f-ad5f1ab3aad6" />
          </symbol>
          <symbol
             overflow="visible"
             id="id-fe6ab171-43f1-459a-8531-c08a3bfa497d">
            <path
               style="stroke:none"
               d="M 3.515625,-1.265625 H 3.28125 c -0.015625,0.15625 -0.09375,0.5625 -0.1875,0.625 C 3.046875,-0.59375 2.515625,-0.59375 2.40625,-0.59375 H 1.125 c 0.734375,-0.640625 0.984375,-0.84375 1.390625,-1.171875 0.515625,-0.40625 1,-0.84375 1,-1.5 0,-0.84375 -0.734375,-1.359375 -1.625,-1.359375 -0.859375,0 -1.453125,0.609375 -1.453125,1.25 0,0.34375 0.296875,0.390625 0.375,0.390625 0.15625,0 0.359375,-0.125 0.359375,-0.375 0,-0.125 -0.046875,-0.375 -0.40625,-0.375 C 0.984375,-4.21875 1.453125,-4.375 1.78125,-4.375 c 0.703125,0 1.0625,0.546875 1.0625,1.109375 0,0.609375 -0.4375,1.078125 -0.65625,1.328125 L 0.515625,-0.265625 C 0.4375,-0.203125 0.4375,-0.1875 0.4375,0 h 2.875 z m 0,0"
               id="id-a06f6b91-f5ce-46d9-8771-2f96146f1ca5" />
          </symbol>
        </g>
      </defs>
      <g
         id="id-1f0147ef-8e64-47e1-bdbe-11905e537cba"
         transform="translate(-149.196,-127.734)">
        <g
           style="fill:#000000;fill-opacity:1"
           id="id-4623631c-d5b2-4ccf-8b7b-1593c1a7883e">
          <g
             transform="translate(148.712,134.765)"
             id="g11665">
            <path
               style="stroke:none"
               d="m 7.375,-4.34375 c 0,-1.609375 -1.0625,-2.6875 -2.546875,-2.6875 -2.140625,0 -4.34375,2.265625 -4.34375,4.59375 0,1.65625 1.125,2.65625 2.5625,2.65625 2.109375,0 4.328125,-2.1875 4.328125,-4.5625 z m -4.28125,4.296875 c -0.984375,0 -1.671875,-0.796875 -1.671875,-2.109375 0,-0.453125 0.140625,-1.90625 0.90625,-3.0625 0.6875,-1.046875 1.65625,-1.5625 2.453125,-1.5625 0.8125,0 1.703125,0.5625 1.703125,2.046875 0,0.71875 -0.265625,2.265625 -1.25,3.5 C 4.75,-0.625 3.9375,-0.046875 3.09375,-0.046875 Z m 0,0"
               id="id-dafaa02c-00a8-440c-87aa-640258fd629f" />
          </g>
        </g>
        <g
           style="fill:#000000;fill-opacity:1"
           id="id-3c9695a9-5901-42f1-9d00-800e39bf9c51">
          <g
             transform="translate(156.312,136.259)"
             id="g11669">
            <path
               style="stroke:none"
               d="m 2.328125,-4.4375 c 0,-0.1875 0,-0.1875 -0.203125,-0.1875 -0.453125,0.4375 -1.078125,0.4375 -1.359375,0.4375 v 0.25 c 0.15625,0 0.625,0 1,-0.1875 v 3.546875 c 0,0.234375 0,0.328125 -0.6875,0.328125 H 0.8125 V 0 c 0.125,0 0.984375,-0.03125 1.234375,-0.03125 0.21875,0 1.09375,0.03125 1.25,0.03125 V -0.25 H 3.03125 c -0.703125,0 -0.703125,-0.09375 -0.703125,-0.328125 z m 0,0"
               id="id-b57aa97a-b9c5-4d4e-acc5-b0c9df74a93e" />
          </g>
          <g
             transform="translate(160.284,136.259)"
             id="g11672">
            <path
               style="stroke:none"
               d="M 3.515625,-1.265625 H 3.28125 c -0.015625,0.15625 -0.09375,0.5625 -0.1875,0.625 C 3.046875,-0.59375 2.515625,-0.59375 2.40625,-0.59375 H 1.125 c 0.734375,-0.640625 0.984375,-0.84375 1.390625,-1.171875 0.515625,-0.40625 1,-0.84375 1,-1.5 0,-0.84375 -0.734375,-1.359375 -1.625,-1.359375 -0.859375,0 -1.453125,0.609375 -1.453125,1.25 0,0.34375 0.296875,0.390625 0.375,0.390625 0.15625,0 0.359375,-0.125 0.359375,-0.375 0,-0.125 -0.046875,-0.375 -0.40625,-0.375 C 0.984375,-4.21875 1.453125,-4.375 1.78125,-4.375 c 0.703125,0 1.0625,0.546875 1.0625,1.109375 0,0.609375 -0.4375,1.078125 -0.65625,1.328125 L 0.515625,-0.265625 C 0.4375,-0.203125 0.4375,-0.1875 0.4375,0 h 2.875 z m 0,0"
               id="id-ab153319-0904-4f19-b85b-9a2ddc4448b6" />
          </g>
        </g>
      </g>
    </g>
    <g
       transform="matrix(0.352778,0,0,0.352778,32.5393,46.0896)"
       ns14:version="1.1.0"
       ns14:texconverter="pdflatex"
       ns14:pdfconverter="inkscape"
       ns14:text="$O_{14}$"
       ns14:preamble="/usr/share/inkscape/extensions/textext/default_packages.tex"
       ns14:scale="1.0000000283464388"
       ns14:alignment="middle center"
       ns14:jacobian_sqrt="0.352778"
       id="g11860">
      <defs
         id="id-518d5382-eaab-4ba1-97e1-81fd1687b6e8">
        <g
           id="id-2a03edb3-8697-4b8e-b9c2-598989929f32">
          <symbol
             overflow="visible"
             id="id-6add2e19-1277-4a75-8d3b-c6a2a77db8ea">
            <path
               style="stroke:none"
               d=""
               id="id-80750bbc-d985-46f2-a803-5de23efe8a50" />
          </symbol>
          <symbol
             overflow="visible"
             id="id-78f6cea1-fdff-4391-a109-494b18569595">
            <path
               style="stroke:none"
               d="m 7.375,-4.34375 c 0,-1.609375 -1.0625,-2.6875 -2.546875,-2.6875 -2.140625,0 -4.34375,2.265625 -4.34375,4.59375 0,1.65625 1.125,2.65625 2.5625,2.65625 2.109375,0 4.328125,-2.1875 4.328125,-4.5625 z m -4.28125,4.296875 c -0.984375,0 -1.671875,-0.796875 -1.671875,-2.109375 0,-0.453125 0.140625,-1.90625 0.90625,-3.0625 0.6875,-1.046875 1.65625,-1.5625 2.453125,-1.5625 0.8125,0 1.703125,0.5625 1.703125,2.046875 0,0.71875 -0.265625,2.265625 -1.25,3.5 C 4.75,-0.625 3.9375,-0.046875 3.09375,-0.046875 Z m 0,0"
               id="id-7abb3548-71f4-4596-a80b-12c018a24bd3" />
          </symbol>
          <symbol
             overflow="visible"
             id="id-d4c8e806-8e48-498e-b657-4d5997e09abc">
            <path
               style="stroke:none"
               d=""
               id="id-628d867b-4cf2-4fd9-b3a7-43ad0b1186de" />
          </symbol>
          <symbol
             overflow="visible"
             id="id-0f30408e-7f5c-407a-b9db-fa3f74e2a1c2">
            <path
               style="stroke:none"
               d="m 2.328125,-4.4375 c 0,-0.1875 0,-0.1875 -0.203125,-0.1875 -0.453125,0.4375 -1.078125,0.4375 -1.359375,0.4375 v 0.25 c 0.15625,0 0.625,0 1,-0.1875 v 3.546875 c 0,0.234375 0,0.328125 -0.6875,0.328125 H 0.8125 V 0 c 0.125,0 0.984375,-0.03125 1.234375,-0.03125 0.21875,0 1.09375,0.03125 1.25,0.03125 V -0.25 H 3.03125 c -0.703125,0 -0.703125,-0.09375 -0.703125,-0.328125 z m 0,0"
               id="id-6be7140b-965e-4bad-a850-5806a4a5a1e0" />
          </symbol>
          <symbol
             overflow="visible"
             id="id-0f2378ba-ef4c-4032-aab2-6362c510ad70">
            <path
               style="stroke:none"
               d="m 3.6875,-1.140625 v -0.25 H 2.90625 V -4.5 c 0,-0.140625 0,-0.203125 -0.140625,-0.203125 -0.09375,0 -0.125,0 -0.1875,0.109375 l -2.3125,3.203125 v 0.25 h 2.0625 v 0.5625 c 0,0.25 0,0.328125 -0.578125,0.328125 H 1.5625 V 0 C 1.921875,-0.015625 2.359375,-0.03125 2.609375,-0.03125 2.875,-0.03125 3.3125,-0.015625 3.671875,0 v -0.25 h -0.1875 C 2.90625,-0.25 2.90625,-0.328125 2.90625,-0.578125 v -0.5625 z M 2.375,-3.9375 v 2.546875 H 0.53125 Z m 0,0"
               id="id-827fb41d-d578-488b-889f-cad35187de79" />
          </symbol>
        </g>
      </defs>
      <g
         id="id-60845d74-9dac-40a5-94b9-2ef78156bc9d"
         transform="translate(-149.196,-127.734)">
        <g
           style="fill:#000000;fill-opacity:1"
           id="id-42defe95-902a-4f97-95af-fa5c4700eec4">
          <g
             transform="translate(148.712,134.765)"
             id="g11849">
            <path
               style="stroke:none"
               d="m 7.375,-4.34375 c 0,-1.609375 -1.0625,-2.6875 -2.546875,-2.6875 -2.140625,0 -4.34375,2.265625 -4.34375,4.59375 0,1.65625 1.125,2.65625 2.5625,2.65625 2.109375,0 4.328125,-2.1875 4.328125,-4.5625 z m -4.28125,4.296875 c -0.984375,0 -1.671875,-0.796875 -1.671875,-2.109375 0,-0.453125 0.140625,-1.90625 0.90625,-3.0625 0.6875,-1.046875 1.65625,-1.5625 2.453125,-1.5625 0.8125,0 1.703125,0.5625 1.703125,2.046875 0,0.71875 -0.265625,2.265625 -1.25,3.5 C 4.75,-0.625 3.9375,-0.046875 3.09375,-0.046875 Z m 0,0"
               id="id-5be994c2-14ac-41ec-b61d-521cbf4bbd2e" />
          </g>
        </g>
        <g
           style="fill:#000000;fill-opacity:1"
           id="id-6149711c-a047-41f2-a9d9-6e9d8921c50d">
          <g
             transform="translate(156.312,136.259)"
             id="g11853">
            <path
               style="stroke:none"
               d="m 2.328125,-4.4375 c 0,-0.1875 0,-0.1875 -0.203125,-0.1875 -0.453125,0.4375 -1.078125,0.4375 -1.359375,0.4375 v 0.25 c 0.15625,0 0.625,0 1,-0.1875 v 3.546875 c 0,0.234375 0,0.328125 -0.6875,0.328125 H 0.8125 V 0 c 0.125,0 0.984375,-0.03125 1.234375,-0.03125 0.21875,0 1.09375,0.03125 1.25,0.03125 V -0.25 H 3.03125 c -0.703125,0 -0.703125,-0.09375 -0.703125,-0.328125 z m 0,0"
               id="id-917f67dd-cddd-452e-9873-afa87f4170a0" />
          </g>
          <g
             transform="translate(160.284,136.259)"
             id="g11856">
            <path
               style="stroke:none"
               d="m 3.6875,-1.140625 v -0.25 H 2.90625 V -4.5 c 0,-0.140625 0,-0.203125 -0.140625,-0.203125 -0.09375,0 -0.125,0 -0.1875,0.109375 l -2.3125,3.203125 v 0.25 h 2.0625 v 0.5625 c 0,0.25 0,0.328125 -0.578125,0.328125 H 1.5625 V 0 C 1.921875,-0.015625 2.359375,-0.03125 2.609375,-0.03125 2.875,-0.03125 3.3125,-0.015625 3.671875,0 v -0.25 h -0.1875 C 2.90625,-0.25 2.90625,-0.328125 2.90625,-0.578125 v -0.5625 z M 2.375,-3.9375 v 2.546875 H 0.53125 Z m 0,0"
               id="id-2e8dc272-788d-4bd4-becb-f073043d7831" />
          </g>
        </g>
      </g>
    </g>
    <path
       style="font-variation-settings:normal;opacity:1;vector-effect:none;fill:none;fill-opacity:1;stroke:#000000;stroke-width:0.25;stroke-linecap:butt;stroke-linejoin:miter;stroke-miterlimit:4;stroke-dasharray:0.5, 0.5;stroke-dashoffset:0;stroke-opacity:1;stop-color:#000000;stop-opacity:1"
       d="M 38.670027,45.664007 C 44.871179,31.832776 51.072331,18.001545 57.273482,4.170314 58.972814,0.38007291 60.672147,-3.4101682 62.371479,-7.2004093"
       id="path11942"
       inkscape:path-effect="#path-effect11944"
       inkscape:original-d="M 38.670027,45.664007 57.273482,4.170314 62.371479,-7.2004093"
       sodipodi:nodetypes="ccc" />
    <path
       style="font-variation-settings:normal;opacity:1;vector-effect:none;fill:none;fill-opacity:1;stroke:#000000;stroke-width:0.25;stroke-linecap:butt;stroke-linejoin:miter;stroke-miterlimit:4;stroke-dasharray:0.5, 0.5;stroke-dashoffset:0;stroke-opacity:1;stop-color:#000000;stop-opacity:1"
       d="M 59.747888,-7.0678908 62.913731,35.930502"
       id="path11946-3"
       inkscape:path-effect="#path-effect11983"
       inkscape:original-d="M 59.747888,-7.0678908 62.913731,35.930502" />
    <rect
       style="font-variation-settings:normal;opacity:1;vector-effect:none;fill:none;fill-opacity:1;stroke:#000000;stroke-width:0.227168;stroke-linecap:butt;stroke-linejoin:miter;stroke-miterlimit:4;stroke-dasharray:0, 2.49885;stroke-dashoffset:0;stroke-opacity:1;stop-color:#000000;stop-opacity:1"
       id="rect11991"
       width="50.765076"
       height="68.424301"
       x="25.606892"
       y="-12.424668" />
    <circle
       style="font-variation-settings:normal;opacity:1;vector-effect:none;fill:none;fill-opacity:1;stroke:#000000;stroke-width:0.25;stroke-linecap:butt;stroke-linejoin:miter;stroke-miterlimit:4;stroke-dasharray:none;stroke-dashoffset:3.5;stroke-opacity:1;stop-color:#000000;stop-opacity:1"
       id="path11997"
       cx="60.119362"
       cy="-2.1772184"
       r="0.5" />
    <g
       transform="matrix(0.352778,0,0,0.352778,54.152444,-5.6168984)"
       ns14:version="1.1.0"
       ns14:texconverter="pdflatex"
       ns14:pdfconverter="inkscape"
       ns14:text="$O_{13}$"
       ns14:preamble="/usr/share/inkscape/extensions/textext/default_packages.tex"
       ns14:scale="1.0000000283464388"
       ns14:alignment="middle center"
       ns14:jacobian_sqrt="0.352778"
       id="g12192">
      <defs
         id="id-32a751e0-9030-4290-a15e-d6f2669d5b13">
        <g
           id="id-ed1f6155-2348-4b44-a40b-1a476e3f2af1">
          <symbol
             overflow="visible"
             id="id-c71264c3-7448-49eb-9112-d11b97477a5f">
            <path
               style="stroke:none"
               d=""
               id="id-84e1ccea-07bf-4ea9-b107-fedb3b21692d" />
          </symbol>
          <symbol
             overflow="visible"
             id="id-f409b618-3add-488e-88f8-483dd6b8b519">
            <path
               style="stroke:none"
               d="m 7.375,-4.34375 c 0,-1.609375 -1.0625,-2.6875 -2.546875,-2.6875 -2.140625,0 -4.34375,2.265625 -4.34375,4.59375 0,1.65625 1.125,2.65625 2.5625,2.65625 2.109375,0 4.328125,-2.1875 4.328125,-4.5625 z m -4.28125,4.296875 c -0.984375,0 -1.671875,-0.796875 -1.671875,-2.109375 0,-0.453125 0.140625,-1.90625 0.90625,-3.0625 0.6875,-1.046875 1.65625,-1.5625 2.453125,-1.5625 0.8125,0 1.703125,0.5625 1.703125,2.046875 0,0.71875 -0.265625,2.265625 -1.25,3.5 C 4.75,-0.625 3.9375,-0.046875 3.09375,-0.046875 Z m 0,0"
               id="id-fdf28791-8f46-4837-adab-8c23ceff2c6a" />
          </symbol>
          <symbol
             overflow="visible"
             id="id-1e46fb9d-8863-42a6-9cd4-40a124c63c17">
            <path
               style="stroke:none"
               d=""
               id="id-9df0e8c7-a346-49b1-95f2-db09089a612d" />
          </symbol>
          <symbol
             overflow="visible"
             id="id-638970aa-63fc-4b22-a299-477387a0c2bc">
            <path
               style="stroke:none"
               d="m 2.328125,-4.4375 c 0,-0.1875 0,-0.1875 -0.203125,-0.1875 -0.453125,0.4375 -1.078125,0.4375 -1.359375,0.4375 v 0.25 c 0.15625,0 0.625,0 1,-0.1875 v 3.546875 c 0,0.234375 0,0.328125 -0.6875,0.328125 H 0.8125 V 0 c 0.125,0 0.984375,-0.03125 1.234375,-0.03125 0.21875,0 1.09375,0.03125 1.25,0.03125 V -0.25 H 3.03125 c -0.703125,0 -0.703125,-0.09375 -0.703125,-0.328125 z m 0,0"
               id="id-e8c69217-ebc0-49b0-a91f-7af14faf8db9" />
          </symbol>
          <symbol
             overflow="visible"
             id="id-d96d903d-be8b-4410-b04c-ec4116882b80">
            <path
               style="stroke:none"
               d="m 1.90625,-2.328125 c 0.546875,0 0.9375,0.375 0.9375,1.125 0,0.859375 -0.515625,1.125 -0.90625,1.125 -0.28125,0 -0.90625,-0.078125 -1.1875,-0.5 0.328125,0 0.40625,-0.234375 0.40625,-0.390625 0,-0.21875 -0.171875,-0.375 -0.390625,-0.375 -0.1875,0 -0.390625,0.125 -0.390625,0.40625 0,0.65625 0.71875,1.078125 1.5625,1.078125 0.96875,0 1.640625,-0.65625 1.640625,-1.34375 0,-0.546875 -0.4375,-1.09375 -1.203125,-1.25 0.71875,-0.265625 0.984375,-0.78125 0.984375,-1.21875 0,-0.546875 -0.625,-0.953125 -1.40625,-0.953125 -0.765625,0 -1.359375,0.375 -1.359375,0.9375 0,0.234375 0.15625,0.359375 0.359375,0.359375 0.21875,0 0.359375,-0.15625 0.359375,-0.34375 0,-0.203125 -0.140625,-0.359375 -0.359375,-0.375 0.25,-0.296875 0.71875,-0.375 0.984375,-0.375 0.3125,0 0.75,0.15625 0.75,0.75 0,0.296875 -0.09375,0.625 -0.28125,0.828125 -0.21875,0.265625 -0.421875,0.28125 -0.765625,0.3125 -0.171875,0.015625 -0.1875,0.015625 -0.21875,0.015625 -0.015625,0 -0.078125,0.015625 -0.078125,0.09375 0,0.09375 0.0625,0.09375 0.1875,0.09375 z m 0,0"
               id="id-d86336ef-bbab-4bac-974e-e89d63e9fb76" />
          </symbol>
        </g>
      </defs>
      <g
         id="id-ac8cfdf8-e6b4-46d0-9e4e-c21898c00eaa"
         transform="translate(-149.196,-127.734)">
        <g
           style="fill:#000000;fill-opacity:1"
           id="id-5e6f99fc-94bf-433c-8e61-84428d638721">
          <g
             transform="translate(148.712,134.765)"
             id="g12181">
            <path
               style="stroke:none"
               d="m 7.375,-4.34375 c 0,-1.609375 -1.0625,-2.6875 -2.546875,-2.6875 -2.140625,0 -4.34375,2.265625 -4.34375,4.59375 0,1.65625 1.125,2.65625 2.5625,2.65625 2.109375,0 4.328125,-2.1875 4.328125,-4.5625 z m -4.28125,4.296875 c -0.984375,0 -1.671875,-0.796875 -1.671875,-2.109375 0,-0.453125 0.140625,-1.90625 0.90625,-3.0625 0.6875,-1.046875 1.65625,-1.5625 2.453125,-1.5625 0.8125,0 1.703125,0.5625 1.703125,2.046875 0,0.71875 -0.265625,2.265625 -1.25,3.5 C 4.75,-0.625 3.9375,-0.046875 3.09375,-0.046875 Z m 0,0"
               id="id-d8df6431-43fe-40fa-97ea-988e7a3f62fe" />
          </g>
        </g>
        <g
           style="fill:#000000;fill-opacity:1"
           id="id-2d694499-4a6a-456e-9076-d8f174b7d56e">
          <g
             transform="translate(156.312,136.259)"
             id="g12185">
            <path
               style="stroke:none"
               d="m 2.328125,-4.4375 c 0,-0.1875 0,-0.1875 -0.203125,-0.1875 -0.453125,0.4375 -1.078125,0.4375 -1.359375,0.4375 v 0.25 c 0.15625,0 0.625,0 1,-0.1875 v 3.546875 c 0,0.234375 0,0.328125 -0.6875,0.328125 H 0.8125 V 0 c 0.125,0 0.984375,-0.03125 1.234375,-0.03125 0.21875,0 1.09375,0.03125 1.25,0.03125 V -0.25 H 3.03125 c -0.703125,0 -0.703125,-0.09375 -0.703125,-0.328125 z m 0,0"
               id="id-9a7d5681-4abc-4842-b0bc-420a0ae3091c" />
          </g>
          <g
             transform="translate(160.284,136.259)"
             id="g12188">
            <path
               style="stroke:none"
               d="m 1.90625,-2.328125 c 0.546875,0 0.9375,0.375 0.9375,1.125 0,0.859375 -0.515625,1.125 -0.90625,1.125 -0.28125,0 -0.90625,-0.078125 -1.1875,-0.5 0.328125,0 0.40625,-0.234375 0.40625,-0.390625 0,-0.21875 -0.171875,-0.375 -0.390625,-0.375 -0.1875,0 -0.390625,0.125 -0.390625,0.40625 0,0.65625 0.71875,1.078125 1.5625,1.078125 0.96875,0 1.640625,-0.65625 1.640625,-1.34375 0,-0.546875 -0.4375,-1.09375 -1.203125,-1.25 0.71875,-0.265625 0.984375,-0.78125 0.984375,-1.21875 0,-0.546875 -0.625,-0.953125 -1.40625,-0.953125 -0.765625,0 -1.359375,0.375 -1.359375,0.9375 0,0.234375 0.15625,0.359375 0.359375,0.359375 0.21875,0 0.359375,-0.15625 0.359375,-0.34375 0,-0.203125 -0.140625,-0.359375 -0.359375,-0.375 0.25,-0.296875 0.71875,-0.375 0.984375,-0.375 0.3125,0 0.75,0.15625 0.75,0.75 0,0.296875 -0.09375,0.625 -0.28125,0.828125 -0.21875,0.265625 -0.421875,0.28125 -0.765625,0.3125 -0.171875,0.015625 -0.1875,0.015625 -0.21875,0.015625 -0.015625,0 -0.078125,0.015625 -0.078125,0.09375 0,0.09375 0.0625,0.09375 0.1875,0.09375 z m 0,0"
               id="id-91a7d9cb-0bcb-4a34-80d4-5d8ed395b602" />
          </g>
        </g>
      </g>
    </g>
    <path
       style="font-variation-settings:normal;opacity:1;vector-effect:none;fill:none;fill-opacity:1;stroke:#000000;stroke-width:0.25;stroke-linecap:butt;stroke-linejoin:miter;stroke-miterlimit:4;stroke-dasharray:0.499999, 0.499999;stroke-dashoffset:0;stroke-opacity:1;stop-color:#000000;stop-opacity:1"
       d="M 54.073499,36.545055 60.11936,-2.1772195"
       id="path12224"
       inkscape:path-effect="#path-effect12226"
       inkscape:original-d="M 54.073499,36.545055 60.11936,-2.1772195" />
    <path
       style="font-variation-settings:normal;opacity:1;vector-effect:none;fill:none;fill-opacity:1;stroke:#0093ff;stroke-width:0.25;stroke-linecap:butt;stroke-linejoin:miter;stroke-miterlimit:4;stroke-dasharray:0.499999, 0.499999;stroke-dashoffset:0;stroke-opacity:1;stop-color:#000000;stop-opacity:1"
       d="M 63.115201,37.956771 45.031797,35.133339"
       id="path12224-2"
       inkscape:path-effect="#path-effect12261"
       inkscape:original-d="M 63.115201,37.956771 45.031797,35.133339" />
  </g>
</svg>
