<?xml version="1.0" encoding="UTF-8" standalone="no"?>
<svg
   xmlns:dc="http://purl.org/dc/elements/1.1/"
   xmlns:cc="http://creativecommons.org/ns#"
   xmlns:rdf="http://www.w3.org/1999/02/22-rdf-syntax-ns#"
   xmlns:svg="http://www.w3.org/2000/svg"
   xmlns="http://www.w3.org/2000/svg"
   xmlns:sodipodi="http://sodipodi.sourceforge.net/DTD/sodipodi-0.dtd"
   xmlns:inkscape="http://www.inkscape.org/namespaces/inkscape"
   width="42.929939mm"
   height="64.552673mm"
   viewBox="0 0 42.929939 64.552673"
   version="1.1"
   id="svg6829"
   inkscape:version="1.0.1 (3bc2e813f5, 2020-09-07)"
   sodipodi:docname="mecanismo.svg">
  <defs
     id="defs6823">
    <clipPath
       clipPathUnits="userSpaceOnUse"
       id="clipPath5533">
      <path
         d="M 0,0 H 128.4 V 192.77 H 0 Z"
         id="path5531" />
    </clipPath>
  </defs>
  <sodipodi:namedview
     id="base"
     pagecolor="#ffffff"
     bordercolor="#666666"
     borderopacity="1.0"
     inkscape:pageopacity="0.0"
     inkscape:pageshadow="2"
     inkscape:zoom="1.1060662"
     inkscape:cx="171.85533"
     inkscape:cy="129.37531"
     inkscape:document-units="mm"
     inkscape:current-layer="layer1"
     inkscape:document-rotation="0"
     showgrid="false"
     inkscape:window-width="1366"
     inkscape:window-height="710"
     inkscape:window-x="0"
     inkscape:window-y="34"
     inkscape:window-maximized="1" />
  <metadata
     id="metadata6826">
    <rdf:RDF>
      <cc:Work
         rdf:about="">
        <dc:format>image/svg+xml</dc:format>
        <dc:type
           rdf:resource="http://purl.org/dc/dcmitype/StillImage" />
        <dc:title></dc:title>
      </cc:Work>
    </rdf:RDF>
  </metadata>
  <g
     inkscape:label="Capa 1"
     inkscape:groupmode="layer"
     id="layer1"
     transform="translate(-25.404078,-24.839744)">
    <g
       id="g5529"
       clip-path="url(#clipPath5533)"
       transform="matrix(0.33655918,0,0,-0.33674124,25.399162,89.741752)">
      <g
         id="g5535">
        <g
           id="g5537">
          <g
             id="g5539" />
        </g>
        <path
           d="M 43.048,31.396 31.604,9.9311 31.589,9.905 30.734,8.48 30.702,8.4319 29.734,7.1269 29.696,7.0806 28.616,5.8956 28.574,5.8538 27.396,4.7963 27.351,4.7594 26.084,3.8294 26.035,3.7972 24.692,3.0022 24.643,2.9759 23.24,2.3159 23.188,2.2943 21.725,1.7693 21.671,1.7527 20.163,1.3702 20.106,1.3586 18.569,1.1261 18.511,1.1203 16.959,1.0378 16.905,1.0374 15.33,1.0974 15.268,1.103 13.701,1.328 13.644,1.339 12.084,1.7215 12.028,1.738 10.491,2.278 10.435,2.3008 8.9351,3.0058 8.8822,3.034 7.4572,3.889 7.4074,3.9225 6.1024,4.8974 6.0563,4.9356 4.8713,6.0231 4.831,6.0638 3.7735,7.2413 3.7366,7.2868 2.8066,8.5543 2.7745,8.6029 1.9795,9.9454 1.9531,9.9951 l -0.66,1.4029 -0.0215,0.052 -0.52504,1.462 -0.01649,0.054 -0.3825,1.5 -0.01173,0.058 -0.2325,1.538 -0.005831,0.057 -0.0825,1.552 -4.01e-4,0.054 0.06,1.568 0.005584,0.061 0.224998,1.568 0.01105,0.057 0.3825,1.56 0.01645,0.055 0.54001,1.538 0.0228,0.056 0.705,1.5 0.0134,0.026 27.6596,51.87 0.015,0.026 0.855,1.425 0.034,0.05 0.975,1.305 0.038,0.046 1.087,1.185 0.043,0.042 1.177,1.05 0.044,0.036 1.267,0.93 0.049,0.032 1.343,0.795 0.049,0.026 1.403,0.66 0.052,0.022 1.463,0.525 0.054,0.016 1.508,0.383 0.056,0.011 1.53,0.233 0.055,0.005 1.56,0.09 0.06,10e-4 1.568,-0.068 0.056,-0.005 1.567,-0.217 0.06,-0.012 1.553,-0.382 0.055,-0.017 1.537,-0.54 0.056,-0.022 1.5,-0.705 0.053,-0.029 1.425,-0.855 0.05,-0.033 1.305,-0.975 0.046,-0.038 1.185,-1.088 0.04,-0.04 1.057,-1.178 0.037,-0.045 0.93,-1.268 0.031,-0.046 0.803,-1.343 0.028,-0.053 0.66,-1.41 0.021,-0.05 0.525,-1.455 0.017,-0.055 0.382,-1.508 0.012,-0.057 0.232,-1.53 0.006,-0.055 0.09,-1.56 V 69.78 l -0.067,-1.568 -0.006,-0.059 -0.225,-1.567 -0.011,-0.057 -0.382,-1.56 -0.017,-0.055 -0.54,-1.538 -0.024,-0.058 -0.712,-1.5 -0.012,-0.024 -12.398,-23.25 -1.047,0.558 12.397,23.25 -0.012,-0.025 0.713,1.5 -0.024,-0.058 0.54,1.538 -0.017,-0.056 0.383,1.56 -0.011,-0.057 0.225,1.568 -0.006,-0.059 0.068,1.568 v -0.06 l -0.09,1.56 0.006,-0.055 -0.233,1.53 0.012,-0.057 -0.383,1.508 0.017,-0.056 -0.525,1.455 0.021,-0.05 -0.66,1.41 0.028,-0.053 -0.802,1.343 0.031,-0.047 -0.93,1.268 0.037,-0.046 -1.058,1.178 0.04,-0.041 -1.185,1.088 0.046,-0.039 -1.305,0.975 0.05,-0.033 -1.425,0.855 0.053,-0.028 -1.5,0.705 0.056,-0.023 -1.538,0.54 0.055,-0.016 -1.552,0.382 0.06,-0.011 -1.568,0.217 0.056,-0.005 -1.567,0.067 0.06,0.001 -1.56,-0.09 0.055,0.006 -1.53,-0.233 0.056,0.012 -1.507,-0.383 0.054,0.017 -1.462,-0.525 0.052,0.021 -1.402,-0.66 0.049,0.027 -1.342,-0.795 0.049,0.032 -1.268,-0.93 0.044,0.035 -1.178,-1.05 0.043,0.042 -1.088,-1.185 0.038,0.046 -0.975,-1.305 0.034,0.05 -0.855,-1.425 0.015,0.026 -27.6604,-51.87 0.0134,0.027 -0.705,-1.5 0.0228,0.056 -0.54,-1.538 0.0165,0.055 -0.3825,-1.56 0.011,0.057 -0.225,-1.567 0.0056,0.062 -0.06,-1.568 -4e-4,0.054 0.0825,-1.552 -0.0058,0.057 0.2325,-1.538 -0.0118,0.058 0.3825,-1.5 -0.0165,0.054 0.525,-1.462 L 2.3669,11.903 3.0269,10.5 3.0005,10.55 3.7955,9.2075 3.7634,9.2561 4.6934,7.9886 4.6565,8.0341 5.714,6.8566 5.6737,6.8973 6.8587,5.8098 6.8126,5.8479 8.1176,4.873 8.0678,4.9064 9.4928,4.0514 9.4399,4.0796 10.94,3.3746 l -0.056,0.0228 1.538,-0.5399 -0.056,0.0164 1.56,-0.3825 -0.057,0.011 1.568,-0.2249 -0.062,0.0056 1.575,-0.0601 -0.054,-4e-4 1.553,0.0825 -0.058,-0.0058 1.538,0.2325 -0.057,-0.0116 1.507,0.3825 -0.054,-0.0166 1.462,0.525 -0.052,-0.0216 1.402,0.66 -0.049,-0.0263 1.342,0.795 -0.049,-0.0322 1.268,0.93 -0.045,-0.0369 1.177,1.0575 -0.042,-0.0418 1.08,1.185 -0.038,-0.0463 0.967,1.305 -0.032,-0.0481 0.855,1.4246 -0.015,-0.026 11.446,21.466 z"
           style="fill:#000000;fill-opacity:1;fill-rule:nonzero;stroke:none"
           id="path5541" />
        <path
           d="m 46.865,39.704 4.095,-2.37 -0.595,-1.027 -4.095,2.37 z m 8.075,-4.716 0.93,-0.533 0.108,-0.079 0.3,-0.278 0.132,-0.179 0.173,-0.36 0.057,-0.223 0.022,-0.405 -0.027,-0.214 -0.128,-0.398 -0.052,-0.119 -3.443,-5.88 -0.061,-0.086 -0.271,-0.315 -0.194,-0.149 -0.36,-0.172 -0.222,-0.058 -0.398,-0.022 -0.237,0.035 -0.39,0.142 -0.095,0.045 -8.67,5.055 0.597,1.025 8.67,-5.055 -0.095,0.045 0.39,-0.143 -0.237,0.036 0.397,0.022 -0.222,-0.057 0.36,0.172 -0.195,-0.149 0.27,0.315 -0.061,-0.086 3.442,5.88 -0.052,-0.119 0.127,0.398 -0.027,-0.214 -0.023,0.405 0.057,-0.224 -0.172,0.36 0.132,-0.179 -0.3,0.278 0.108,-0.08 -0.93,0.533 z"
           style="fill:#000000;fill-opacity:1;fill-rule:nonzero;stroke:none"
           id="path5543" />
        <path
           d="m 115.57,144.29 -0.06,-0.08 -0.24,-0.25 -0.11,-0.08 -0.29,-0.18 -0.09,-0.05 -0.3,-0.12 -0.12,-0.04 -0.32,-0.06 -0.11,-0.01 h -0.33 l -0.12,0.02 -0.32,0.06 -0.11,0.04 -0.3,0.12 -0.1,0.05 -0.29,0.19 -0.1,0.08 -0.24,0.24 -0.09,0.11 -0.17,0.29 -0.04,0.08 -0.12,0.3 -0.04,0.12 -0.06,0.32 -0.01,0.11 v 0.33 l 0.02,0.12 0.06,0.32 0.04,0.11 0.12,0.3 0.06,0.12 0.21,0.29 0.06,0.07 0.24,0.25 0.11,0.09 0.28,0.18 0.1,0.05 0.3,0.12 0.11,0.03 0.32,0.06 0.11,0.01 h 0.33 l 0.12,-0.01 0.33,-0.07 0.1,-0.03 0.31,-0.13 0.09,-0.05 0.3,-0.19 0.09,-0.08 0.24,-0.24 0.09,-0.11 0.18,-0.28 0.04,-0.09 0.12,-0.3 0.03,-0.11 0.06,-0.32 0.01,-0.11 v -0.33 l -0.01,-0.12 -0.07,-0.33 -0.03,-0.1 -0.13,-0.31 -0.06,-0.11 z m -0.78,0.97 -0.06,-0.12 0.13,0.31 -0.03,-0.1 0.07,0.32 -0.02,-0.12 v 0.33 l 0.01,-0.11 -0.06,0.32 0.04,-0.11 -0.12,0.3 0.04,-0.09 -0.17,0.29 0.09,-0.11 -0.24,0.24 0.09,-0.08 -0.29,0.18 0.1,-0.05 -0.31,0.13 0.1,-0.03 -0.32,0.07 0.12,-0.02 h -0.33 l 0.11,0.01 -0.32,-0.06 0.11,0.04 -0.3,-0.12 0.1,0.05 -0.29,-0.18 0.11,0.08 -0.24,-0.24 0.06,0.07 -0.2,-0.29 0.06,0.11 -0.13,-0.31 0.04,0.11 -0.07,-0.32 0.01,0.12 v -0.33 l -0.01,0.11 0.06,-0.33 -0.03,0.12 0.12,-0.3 -0.04,0.08 0.17,-0.28 -0.09,0.11 0.24,-0.24 -0.1,0.08 0.29,-0.19 -0.09,0.05 0.31,-0.13 -0.11,0.04 0.32,-0.07 -0.12,0.01 h 0.33 l -0.11,-0.01 0.33,0.06 -0.12,-0.03 0.3,0.12 -0.09,-0.05 0.28,0.18 -0.11,-0.09 0.24,0.25 -0.06,-0.08 z"
           style="fill:#000000;fill-opacity:1;fill-rule:nonzero;stroke:none"
           id="path5545" />
        <path
           d="m 54.4,34.74 0.758,1.185 -0.003,-0.004 0.788,1.252 0.825,1.313 -0.002,-0.002 0.855,1.372 -0.001,-0.002 0.885,1.433 0.923,1.486 -0.002,-0.003 0.945,1.545 0.976,1.59 -0.002,-0.002 0.998,1.643 1.028,1.688 -0.002,-0.003 2.115,3.51 2.197,3.667 2.272,3.809 -0.001,-0.002 2.325,3.93 2.385,4.027 2.422,4.117 2.444,4.176 2.467,4.229 2.474,4.259 4.92,8.519 2.429,4.222 2.392,4.186 2.347,4.11 2.295,4.03 2.218,3.92 2.14,3.8 2.05,3.67 1.95,3.5 0.94,1.69 0.91,1.64 h -0.01 l 0.87,1.59 0.85,1.54 v -0.01 l 0.81,1.49 v 0 l 0.77,1.43 0.75,1.37 0.7,1.31 v 0 l 0.66,1.25 0.62,1.17 v 0 l 0.58,1.12 v 0 l 0.54,1.04 v 0 l 0.5,0.96 h -0.01 l 0.45,0.9 v 0 l 0.41,0.81 v 0 l 0.36,0.74 -0.02,-0.04 0.16,0.38 -0.03,-0.07 0.11,0.4 -0.01,-0.05 0.07,0.39 -0.01,-0.08 0.01,0.39 0.01,-0.09 -0.09,0.77 0.03,-0.12 -0.24,0.73 0.04,-0.1 -0.37,0.69 0.05,-0.08 -0.48,0.63 0.07,-0.08 -0.59,0.55 0.07,-0.05 -0.67,0.46 0.08,-0.04 -0.73,0.36 0.09,-0.04 -0.78,0.24 0.09,-0.02 -0.81,0.12 0.11,-0.01 -0.83,-0.03 0.12,0.02 -0.83,-0.2 0.08,0.02 -0.4,-0.15 0.05,0.02 -0.4,-0.2 0.06,0.03 -0.39,-0.25 0.04,0.03 -0.38,-0.3 0.04,0.03 -0.37,-0.34 0.04,0.04 -0.34,-0.4 -0.01,-0.01 -0.05,-0.06 v 0 l -0.14,-0.16 0.01,0.01 -0.24,-0.28 -0.32,-0.38 -0.4,-0.48 -0.48,-0.57 0.01,0.01 -0.54,-0.66 v 0 l -0.62,-0.73 v 0 l -0.66,-0.81 -0.73,-0.88 v 0 l -0.77,-0.94 -0.82,-1 -0.86,-1.06 v 0 l -0.89,-1.11 -1.88,-2.34 0.01,0.01 -1.954,-2.48 h 0.003 l -1.988,-2.55 h 0.005 l -1.98,-2.62 0.003,0.01 -1.943,-2.62 0.005,0.01 -1.86,-2.58 0.006,0.01 -1.74,-2.51 0.007,0.01 -0.802,-1.21 0.003,0.01 -0.765,-1.18 0.005,0.01 -0.713,-1.13 0.007,0.01 -0.653,-1.09 0.006,0.01 -0.608,-1.06 0.006,0.01 -0.607,-1.11 0.005,0.01 -0.6,-1.14 0.007,0.01 -0.593,-1.2 0.006,0.01 -1.17,-2.51 0.006,0.02 -1.155,-2.64 0.004,0.01 -1.14,-2.75 h 0.004 l -1.125,-2.84 0.003,0.01 -1.11,-2.918 0.001,0.003 -1.103,-2.955 0.002,0.005 -2.16,-5.947 -1.072,-2.948 -0.001,-0.002 -1.065,-2.895 -0.001,-0.003 -1.058,-2.828 -0.002,-0.005 -1.05,-2.73 -0.003,-0.008 -1.05,-2.61 -0.004,-0.01 -1.05,-2.475 -0.004,-0.01 -0.548,-1.23 -10e-4,-0.002 -0.577,-1.283 -0.002,-0.003 -0.615,-1.343 -0.001,-0.003 -0.645,-1.387 -0.002,-0.003 -1.365,-2.895 -0.002,-0.005 -1.447,-3.007 -10e-4,-0.002 -1.485,-3.06 -0.002,-0.003 -1.515,-3.068 -1.5,-3.03 -0.002,-0.004 -1.47,-2.925 -0.704,-1.409 -0.691,-1.373 -10e-4,-0.003 -0.668,-1.312 -0.645,-1.262 10e-4,0.003 -0.608,-1.2 -0.57,-1.125 -10e-4,-0.004 -0.54,-1.05 -0.495,-0.966 -0.45,-0.878 -0.001,-0.003 -0.405,-0.78 0.003,0.006 -0.345,-0.682 -0.005,-0.009 -0.3,-0.57 0.004,0.007 -0.233,-0.457 -0.003,-0.006 -0.172,-0.33 10e-4,0.002 -0.105,-0.203 0.004,0.008 -0.038,-0.075 -1.061,0.531 0.037,0.074 0.004,0.008 0.105,0.203 0.001,0.002 0.173,0.33 -0.003,-0.007 0.232,0.458 0.004,0.008 0.3,0.57 -0.005,-0.009 0.345,0.682 0.003,0.006 0.405,0.78 -10e-4,-0.003 0.45,0.877 0.495,0.969 0.54,1.05 -10e-4,-0.003 0.57,1.125 0.607,1.2 10e-4,0.002 0.645,1.259 0.667,1.312 -0.001,-0.002 0.689,1.371 0.706,1.411 1.47,2.925 -0.002,-0.003 1.5,3.029 1.515,3.068 -0.002,-0.004 1.485,3.06 -0.001,-0.002 1.448,3.008 -0.002,-0.004 1.365,2.895 -0.002,-0.003 0.645,1.387 -0.001,-0.003 0.615,1.343 -0.002,-0.004 0.578,1.283 -10e-4,-0.003 0.547,1.23 -0.004,-0.009 1.05,2.475 -0.004,-0.01 1.05,2.61 -0.003,-0.009 1.05,2.73 -0.002,-0.005 1.057,2.828 -0.001,-0.003 1.065,2.895 -0.001,-0.002 1.073,2.947 2.16,5.947 0.002,0.005 1.102,2.955 0.001,0.004 1.11,2.916 0.003,0.01 1.125,2.84 0.004,0.01 1.14,2.75 0.004,0.01 1.155,2.64 0.006,0.02 1.17,2.5 0.006,0.01 0.592,1.2 0.007,0.02 0.6,1.14 0.005,0.01 0.608,1.11 0.006,0.01 0.607,1.06 0.006,0.01 0.652,1.09 0.007,0.01 0.712,1.13 0.005,0.01 0.765,1.18 h 0.003 l 0.803,1.21 0.007,0.01 1.74,2.5 0.006,0.01 1.86,2.58 0.005,0.01 1.942,2.62 h 0.003 l 1.98,2.62 h 0.005 l 1.987,2.56 h 0.003 l 1.946,2.48 h 0.01 l 1.87,2.34 0.9,1.11 v 0.01 l 0.86,1.05 0.82,1.01 0.77,0.95 v 0 l 0.73,0.87 0.67,0.81 v 0.01 l 0.61,0.73 v 0 l 0.54,0.65 0.01,0.01 0.48,0.57 0.39,0.47 0.33,0.38 0.23,0.28 v 0.01 l 0.15,0.16 v 0 l 0.05,0.06 v 0 l 0.34,0.4 0.05,0.05 0.36,0.35 0.04,0.03 0.39,0.3 0.04,0.03 0.39,0.25 0.05,0.04 0.4,0.2 0.05,0.02 0.41,0.16 0.08,0.03 0.82,0.19 0.12,0.02 0.82,0.03 0.11,-0.01 0.81,-0.11 0.09,-0.02 0.78,-0.24 0.09,-0.04 0.73,-0.36 0.07,-0.04 0.67,-0.47 0.07,-0.05 0.58,-0.55 0.07,-0.07 0.48,-0.63 0.05,-0.08 0.36,-0.68 0.05,-0.1 0.24,-0.74 0.02,-0.12 0.08,-0.76 0.01,-0.09 -0.02,-0.39 -0.01,-0.08 -0.06,-0.39 -0.01,-0.05 -0.11,-0.39 -0.02,-0.08 -0.16,-0.38 -0.02,-0.04 -0.36,-0.73 v 0 l -0.4,-0.82 v 0 l -0.45,-0.9 -0.01,-0.01 -0.49,-0.96 v -0.01 l -0.54,-1.04 v 0 l -0.59,-1.12 v 0 l -0.62,-1.18 -0.66,-1.25 v 0 l -0.71,-1.31 -0.74,-1.37 -0.78,-1.44 v 0 l -0.81,-1.48 v -0.01 l -0.84,-1.53 -0.87,-1.59 h -0.01 l -0.9,-1.65 -0.94,-1.69 -1.95,-3.5 -2.06,-3.67 -2.14,-3.8 -2.217,-3.93 -2.295,-4.03 -2.348,-4.11 -2.393,-4.188 -2.431,-4.223 -4.92,-8.522 -2.476,-4.261 -2.468,-4.23 -2.446,-4.179 -2.423,-4.119 -2.385,-4.027 -2.325,-3.93 -0.001,-0.002 -2.273,-3.811 -2.198,-3.669 -2.115,-3.51 L 64.384,48.617 63.357,46.93 62.36,45.287 62.358,45.285 61.384,43.696 60.439,42.151 60.437,42.147 59.515,40.663 58.63,39.231 58.629,39.229 57.774,37.857 57.772,37.854 56.947,36.542 56.16,35.289 56.157,35.286 55.4,34.101 Z"
           style="fill:#000000;fill-opacity:1;fill-rule:nonzero;stroke:none"
           id="path5547" />
        <path
           d="m 90.777,113.59 -0.086,-0.1 -0.248,-0.24 -0.1,-0.08 -0.277,-0.17 -0.086,-0.05 -0.308,-0.13 -0.118,-0.03 -0.323,-0.06 -0.108,-0.01 H 88.8 l -0.106,0.01 -0.33,0.06 -0.121,0.03 -0.308,0.13 -0.093,0.05 -0.292,0.19 -0.106,0.08 -0.247,0.26 -0.076,0.1 -0.18,0.28 -0.051,0.1 -0.12,0.31 -0.031,0.11 -0.06,0.32 -0.01,0.11 v 0.32 l 0.013,0.12 0.067,0.32 0.033,0.11 0.127,0.31 0.057,0.1 0.187,0.28 0.066,0.08 0.24,0.25 0.1,0.08 0.285,0.19 0.106,0.05 0.3,0.12 0.098,0.03 0.323,0.07 0.121,0.01 h 0.331 l 0.108,-0.01 0.323,-0.06 0.13,-0.04 0.307,-0.13 0.091,-0.05 0.292,-0.2 0.091,-0.07 0.247,-0.25 0.078,-0.09 0.18,-0.28 0.051,-0.1 0.127,-0.31 0.035,-0.11 0.06,-0.33 0.01,-0.1 v -0.33 l -0.012,-0.12 -0.067,-0.33 -0.033,-0.1 -0.128,-0.31 -0.048,-0.09 z m -0.812,0.94 -0.048,-0.1 0.127,0.31 -0.033,-0.11 0.068,0.33 -0.012,-0.12 v 0.33 l 0.01,-0.11 -0.06,0.32 0.035,-0.12 -0.128,0.31 0.051,-0.1 -0.18,0.28 0.078,-0.1 -0.248,0.25 0.091,-0.07 -0.293,0.19 0.091,-0.05 -0.308,0.14 0.13,-0.04 -0.322,0.06 0.109,-0.01 h -0.331 l 0.122,0.01 -0.322,-0.07 0.098,0.03 -0.3,-0.12 0.106,0.06 -0.285,-0.19 0.1,0.08 -0.24,-0.25 0.066,0.09 -0.188,-0.28 0.057,0.1 -0.128,-0.3 0.033,0.1 -0.068,-0.32 0.013,0.12 v -0.32 l -0.01,0.11 0.06,-0.33 -0.031,0.11 0.12,-0.31 -0.051,0.1 0.18,-0.28 -0.076,0.1 0.248,-0.26 -0.106,0.09 0.293,-0.19 -0.093,0.05 0.307,-0.13 -0.121,0.04 0.33,-0.06 -0.106,0.01 h 0.323 l -0.109,-0.01 0.322,0.06 -0.118,-0.04 0.307,0.13 -0.086,-0.05 0.278,0.18 -0.1,-0.08 0.247,0.24 -0.086,-0.11 z"
           style="fill:#000000;fill-opacity:1;fill-rule:nonzero;stroke:none"
           id="path5549" />
        <path
           d="m 114.96,183.28 v -0.8 h -4.54 c 0,0.2 0.02,0.4 0.11,0.57 0.11,0.31 0.28,0.62 0.54,0.93 0.25,0.28 0.62,0.62 1.1,1.02 0.76,0.62 1.27,1.1 1.52,1.47 0.26,0.34 0.4,0.68 0.4,0.99 0,0.34 -0.14,0.62 -0.37,0.84 -0.23,0.23 -0.54,0.34 -0.93,0.34 -0.4,0 -0.74,-0.11 -0.96,-0.36 -0.26,-0.23 -0.37,-0.57 -0.37,-0.99 l -0.88,0.08 c 0.06,0.65 0.29,1.13 0.68,1.47 0.37,0.34 0.91,0.51 1.56,0.51 0.65,0 1.16,-0.17 1.55,-0.54 0.37,-0.36 0.57,-0.82 0.57,-1.35 0,-0.29 -0.06,-0.57 -0.17,-0.82 -0.12,-0.26 -0.29,-0.54 -0.54,-0.82 -0.28,-0.31 -0.71,-0.71 -1.3,-1.22 -0.51,-0.42 -0.85,-0.7 -0.99,-0.87 -0.14,-0.14 -0.25,-0.29 -0.34,-0.45 z"
           style="fill:#000000;fill-opacity:1;fill-rule:nonzero;stroke:none"
           id="path5551" />
        <path
           d="m 40.177,108.55 v 1.64 H 37.21 v 0.79 l 3.108,4.44 h 0.678 v -4.44 h 0.932 v -0.79 h -0.932 v -1.64 z m 0,2.43 v 3.08 l -2.148,-3.08 z"
           style="fill:#000000;fill-opacity:1;fill-rule:nonzero;stroke:none"
           id="path5553" />
        <path
           d="M 109.85,91.516 109,91.432 c -0.08,0.339 -0.17,0.565 -0.31,0.734 -0.22,0.226 -0.51,0.339 -0.85,0.339 -0.25,0 -0.5,-0.056 -0.7,-0.226 -0.26,-0.169 -0.48,-0.452 -0.62,-0.819 -0.15,-0.396 -0.23,-0.904 -0.26,-1.61 0.23,0.31 0.45,0.565 0.76,0.706 0.29,0.141 0.6,0.226 0.91,0.226 0.56,0 1.04,-0.226 1.44,-0.622 0.4,-0.423 0.59,-0.96 0.59,-1.61 0,-0.424 -0.08,-0.819 -0.28,-1.187 -0.17,-0.367 -0.42,-0.649 -0.76,-0.847 -0.31,-0.198 -0.68,-0.311 -1.1,-0.311 -0.71,0 -1.28,0.254 -1.73,0.791 -0.42,0.509 -0.65,1.356 -0.65,2.543 0,1.328 0.26,2.288 0.74,2.881 0.42,0.537 0.99,0.791 1.72,0.791 0.54,0 0.99,-0.141 1.33,-0.452 0.34,-0.31 0.54,-0.734 0.62,-1.243 z M 106.4,88.55 c 0,-0.283 0.06,-0.565 0.2,-0.819 0.11,-0.283 0.28,-0.481 0.51,-0.622 0.23,-0.141 0.45,-0.198 0.71,-0.198 0.33,0 0.65,0.142 0.9,0.424 0.25,0.283 0.4,0.678 0.4,1.159 0,0.48 -0.15,0.847 -0.4,1.13 -0.25,0.282 -0.57,0.395 -0.96,0.395 -0.37,0 -0.68,-0.113 -0.96,-0.395 -0.26,-0.283 -0.4,-0.622 -0.4,-1.074 z"
           style="fill:#000000;fill-opacity:1;fill-rule:nonzero;stroke:none"
           id="path5555" />
        <path
           d="m 119.12,185.9 c 0,-3.56 -2.88,-6.44 -6.44,-6.44 -3.56,0 -6.45,2.88 -6.45,6.44 0,3.56 2.89,6.44 6.45,6.44 3.56,0 6.44,-2.88 6.44,-6.44 z"
           style="fill:none;stroke:#000000;stroke-width:0.7911;stroke-linecap:butt;stroke-linejoin:miter;stroke-miterlimit:8;stroke-dasharray:none;stroke-opacity:1"
           id="path5557" />
        <path
           d="m 45.997,111.97 c 0,-3.53 -2.882,-6.41 -6.442,-6.41 -3.56,0 -6.442,2.88 -6.442,6.41 0,3.56 2.882,6.44 6.442,6.44 3.56,0 6.442,-2.88 6.442,-6.44 z"
           style="fill:none;stroke:#000000;stroke-width:0.7911;stroke-linecap:butt;stroke-linejoin:miter;stroke-miterlimit:8;stroke-dasharray:none;stroke-opacity:1"
           id="path5559" />
        <path
           d="m 114.17,89.652 c 0,-3.56 -2.88,-6.441 -6.41,-6.441 -3.56,0 -6.44,2.881 -6.44,6.441 0,3.559 2.88,6.441 6.44,6.441 3.53,0 6.41,-2.882 6.41,-6.441 z"
           style="fill:none;stroke:#000000;stroke-width:0.7911;stroke-linecap:butt;stroke-linejoin:miter;stroke-miterlimit:8;stroke-dasharray:none;stroke-opacity:1"
           id="path5561" />
        <path
           d="m 43.454,117.03 7.487,9.94"
           style="fill:none;stroke:#000000;stroke-width:0.7911;stroke-linecap:butt;stroke-linejoin:miter;stroke-miterlimit:8;stroke-dasharray:none;stroke-opacity:1"
           id="path5563" />
        <path
           d="m 93.407,98.692 8.473,-5.989"
           style="fill:none;stroke:#000000;stroke-width:0.7911;stroke-linecap:butt;stroke-linejoin:miter;stroke-miterlimit:8;stroke-dasharray:none;stroke-opacity:1"
           id="path5565" />
        <path
           d="m 99.086,163.44 9.974,17.04"
           style="fill:none;stroke:#000000;stroke-width:0.7911;stroke-linecap:butt;stroke-linejoin:miter;stroke-miterlimit:8;stroke-dasharray:none;stroke-opacity:1"
           id="path5567" />
        <path
           d="m 52.696,155.36 -0.011,-0.12 -0.068,-0.34 -0.028,-0.1 -0.12,-0.31 -0.062,-0.12 -0.188,-0.28 -0.065,-0.08 -0.225,-0.23 -0.097,-0.09 -0.27,-0.18 -0.102,-0.05 -0.308,-0.13 -0.098,-0.03 -0.338,-0.07 -0.129,-0.02 h -0.352 l -0.116,0.01 -0.338,0.07 -0.111,0.03 -0.307,0.13 -0.111,0.06 -0.27,0.19 -0.088,0.08 -0.225,0.23 -0.068,0.08 -0.18,0.27 -0.054,0.1 -0.128,0.31 -0.03,0.1 -0.075,0.33 -0.015,0.13 v 0.34 l 0.012,0.12 0.067,0.34 0.034,0.11 0.127,0.3 0.055,0.11 0.18,0.27 0.081,0.09 0.232,0.23 0.084,0.07 0.27,0.18 0.102,0.05 0.307,0.13 0.096,0.03 0.33,0.07 0.131,0.02 h 0.353 l 0.116,-0.01 0.338,-0.07 0.099,-0.03 0.308,-0.12 0.113,-0.06 0.27,-0.18 0.097,-0.08 0.225,-0.23 0.063,-0.08 0.18,-0.26 0.059,-0.11 0.128,-0.31 0.029,-0.09 0.075,-0.32 0.016,-0.14 z m -1.187,0.34 0.016,-0.13 -0.075,0.32 0.029,-0.09 -0.127,0.31 0.059,-0.11 -0.18,0.26 0.063,-0.08 -0.225,0.24 0.097,-0.09 -0.27,0.18 0.113,-0.05 -0.307,0.12 0.099,-0.03 -0.337,0.06 0.116,-0.01 h -0.353 l 0.132,0.02 -0.33,-0.08 0.096,0.03 -0.308,-0.13 0.102,0.06 -0.27,-0.18 0.084,0.07 -0.233,-0.23 0.081,0.1 -0.18,-0.27 0.055,0.1 -0.128,-0.31 0.034,0.11 -0.068,-0.33 0.012,0.11 v -0.34 l -0.015,0.13 0.075,-0.33 -0.03,0.09 0.127,-0.3 -0.054,0.1 0.18,-0.27 -0.068,0.08 0.225,-0.23 -0.088,0.07 0.27,-0.18 -0.111,0.06 0.308,-0.13 -0.111,0.03 0.337,-0.06 -0.116,0.01 h 0.352 l -0.128,-0.02 0.337,0.08 -0.098,-0.03 0.307,0.13 -0.102,-0.06 0.27,0.18 -0.097,-0.08 0.225,0.23 -0.065,-0.08 0.187,0.28 -0.062,-0.12 0.12,0.31 -0.028,-0.09 0.067,0.34 -0.011,-0.11 z"
           style="fill:#000000;fill-opacity:1;fill-rule:nonzero;stroke:none"
           id="path5569" />
        <path
           d="m 82.361,160.71 0.542,0.64 4.012,0.34 0.641,-0.54 0.48,-5.94 -0.545,-0.64 -4.012,-0.31 -0.637,0.55 z m 1.663,-5.81 -0.637,0.55 4.012,0.31 -0.545,-0.64 -0.481,5.93 0.642,-0.54 -4.012,-0.34 0.541,0.64 z"
           style="fill:#000000;fill-opacity:1;fill-rule:nonzero;stroke:none"
           id="path5571" />
        <path
           d="m 51.945,156.21 31.22,2.2 0.084,-1.18 -31.221,-2.2 z"
           style="fill:#000000;fill-opacity:1;fill-rule:nonzero;stroke:none"
           id="path5573" />
        <path
           d="m 113.75,159.66 -0.01,-0.12 -0.07,-0.34 -0.02,-0.1 -0.12,-0.32 -0.07,-0.12 -0.18,-0.27 -0.07,-0.08 -0.22,-0.24 -0.09,-0.07 -0.27,-0.19 -0.11,-0.06 -0.3,-0.13 -0.11,-0.03 -0.32,-0.07 -0.12,-0.01 h -0.35 l -0.11,0.01 -0.35,0.07 -0.11,0.03 -0.31,0.13 -0.11,0.06 -0.28,0.18 -0.08,0.08 -0.24,0.23 -0.07,0.09 -0.18,0.27 -0.05,0.1 -0.13,0.3 -0.03,0.1 -0.08,0.33 -0.01,0.13 v 0.34 l 0.01,0.12 0.07,0.34 0.03,0.11 0.13,0.3 0.06,0.12 0.19,0.27 0.06,0.08 0.24,0.23 0.09,0.07 0.27,0.18 0.09,0.06 0.3,0.12 0.1,0.04 0.33,0.07 0.13,0.02 h 0.35 l 0.12,-0.02 0.33,-0.06 0.11,-0.04 0.31,-0.12 0.1,-0.06 0.27,-0.18 0.09,-0.07 0.24,-0.24 0.07,-0.08 0.18,-0.26 0.05,-0.11 0.13,-0.3 0.03,-0.09 0.08,-0.33 0.01,-0.13 z m -1.18,0.34 0.01,-0.13 -0.07,0.32 0.03,-0.1 -0.13,0.3 0.06,-0.1 -0.18,0.26 0.07,-0.08 -0.23,0.23 0.09,-0.08 -0.27,0.18 0.1,-0.05 -0.31,0.13 0.11,-0.04 -0.34,0.07 0.12,-0.01 h -0.35 l 0.14,0.01 -0.33,-0.07 0.1,0.03 -0.3,-0.13 0.09,0.06 -0.27,-0.18 0.09,0.07 -0.23,-0.23 0.07,0.08 -0.19,-0.27 0.06,0.11 -0.12,-0.31 0.03,0.11 -0.07,-0.33 0.01,0.11 v -0.34 l -0.01,0.13 0.07,-0.33 -0.03,0.1 0.13,-0.3 -0.05,0.1 0.18,-0.27 -0.08,0.09 0.23,-0.24 -0.08,0.08 0.27,-0.19 -0.1,0.06 0.31,-0.13 -0.11,0.03 0.35,-0.07 -0.12,0.02 h 0.35 l -0.12,-0.02 0.32,0.07 -0.11,-0.03 0.3,0.12 -0.11,-0.06 0.27,0.19 -0.09,-0.07 0.23,0.23 -0.07,-0.08 0.19,0.28 -0.06,-0.12 0.12,0.31 -0.03,-0.1 0.07,0.35 -0.01,-0.11 z"
           style="fill:#000000;fill-opacity:1;fill-rule:nonzero;stroke:none"
           id="path5575" />
        <path
           d="m 65.28,161.89 39.87,2.82 0.63,-0.55 0.68,-9.46 -0.55,-0.63 -39.868,-2.8 -0.083,1.18 39.861,2.8 -0.55,-0.64 -0.67,9.47 0.63,-0.55 -39.866,-2.83 z"
           style="fill:#000000;fill-opacity:1;fill-rule:nonzero;stroke:none"
           id="path5577" />
        <path
           d="m 109.89,159.09 -4.27,-0.28 -0.08,1.19 4.27,0.28 z"
           style="fill:#000000;fill-opacity:1;fill-rule:nonzero;stroke:none"
           id="path5579" />
        <path
           d="m 43.539,182.48 0.847,0.12 c 0.113,-0.48 0.255,-0.82 0.509,-1.05 0.226,-0.2 0.509,-0.31 0.848,-0.31 0.395,0 0.706,0.14 0.989,0.43 0.282,0.28 0.395,0.62 0.395,1.01 0,0.4 -0.113,0.71 -0.367,0.96 -0.255,0.26 -0.565,0.37 -0.961,0.37 -0.169,0 -0.367,-0.03 -0.593,-0.08 l 0.085,0.73 c 0.056,0 0.113,0 0.141,0 0.367,0 0.678,0.08 0.96,0.25 0.311,0.2 0.453,0.48 0.453,0.88 0,0.31 -0.113,0.56 -0.34,0.76 -0.197,0.2 -0.452,0.31 -0.791,0.31 -0.339,0 -0.593,-0.11 -0.819,-0.31 -0.226,-0.2 -0.367,-0.51 -0.424,-0.93 l -0.847,0.17 c 0.113,0.54 0.339,0.99 0.706,1.3 0.367,0.31 0.819,0.45 1.356,0.45 0.367,0 0.735,-0.06 1.046,-0.22 0.31,-0.17 0.536,-0.4 0.706,-0.65 0.169,-0.29 0.254,-0.6 0.254,-0.91 0,-0.28 -0.085,-0.56 -0.226,-0.79 -0.169,-0.25 -0.395,-0.45 -0.706,-0.59 0.395,-0.09 0.706,-0.29 0.932,-0.57 0.226,-0.31 0.339,-0.68 0.339,-1.1 0,-0.62 -0.226,-1.13 -0.65,-1.53 -0.452,-0.42 -0.989,-0.62 -1.667,-0.62 -0.593,0 -1.102,0.17 -1.497,0.54 -0.396,0.34 -0.622,0.82 -0.678,1.38 z"
           style="fill:#000000;fill-opacity:1;fill-rule:nonzero;stroke:none"
           id="path5581" />
        <path
           d="m 39.357,184.07 c 0,-3.56 2.882,-6.44 6.442,-6.44 3.56,0 6.442,2.88 6.442,6.44 0,3.53 -2.882,6.41 -6.442,6.41 -3.56,0 -6.442,-2.88 -6.442,-6.41 z"
           style="fill:none;stroke:#000000;stroke-width:0.7911;stroke-linecap:butt;stroke-linejoin:miter;stroke-miterlimit:8;stroke-dasharray:none;stroke-opacity:1"
           id="path5583" />
        <path
           d="M 63.09,156.47 49.416,178.61"
           style="fill:none;stroke:#000000;stroke-width:0.7911;stroke-linecap:butt;stroke-linejoin:miter;stroke-miterlimit:8;stroke-dasharray:none;stroke-opacity:1"
           id="path5585" />
        <path
           d="m 39.018,126.49 c 0,0 51.252,2.01 54.304,2.57 3.023,0.57 4.21,1.81 4.549,3.34 0.367,1.55 -0.311,3.36 -3.108,4.4 -9.013,3.34 -38.001,1.78 -40.318,11.3 -0.876,4.41 0.169,7.74 -1.187,10.03 -1.978,1.7 -4.577,1.41 -6.046,-0.37 -1.611,-1.92 -11.471,-21.72 -12.149,-24.04 -0.707,-2.34 -0.368,-6.92 3.955,-7.23 z"
           style="fill:#ffffff;fill-opacity:1;fill-rule:nonzero;stroke:none"
           id="path5587" />
        <path
           d="m 39.103,127.08 h -0.081 0.038 -0.039 l 0.112,0.01 h 0.015 l 0.18,0.01 h 0.007 l 0.247,0.01 h -0.01 l 0.315,0.01 h 0.004 l 0.375,0.02 h 0.004 l 0.442,0.01 h -0.006 l 0.495,0.02 h 0.003 l 0.562,0.03 0.61,0.02 0.661,0.02 h -0.004 l 0.712,0.03 0.767,0.03 h -0.005 l 0.803,0.04 h 0.004 l 1.741,0.07 1.897,0.07 2.024,0.08 2.152,0.09 2.251,0.09 2.324,0.1 2.391,0.11 2.446,0.1 2.46,0.11 4.941,0.21 2.438,0.11 h -0.002 l 2.393,0.11 2.333,0.11 H 77.1 l 2.243,0.11 2.145,0.1 2.034,0.1 h -0.003 l 1.89,0.1 h -0.002 l 1.732,0.1 0.803,0.04 H 87.94 l 0.757,0.04 0.004,0.01 0.713,0.03 h -0.009 l 0.66,0.05 h 0.003 l 0.608,0.03 h -0.011 l 0.555,0.05 h 0.012 l 0.495,0.03 h -0.015 l 0.435,0.04 h -0.009 l 0.375,0.03 h 0.003 l 0.315,0.03 h -0.017 l 0.24,0.03 0.18,0.02 -0.061,-0.01 1.065,0.25 -0.055,-0.01 0.893,0.3 -0.068,-0.03 0.735,0.35 -0.072,-0.04 0.607,0.4 -0.083,-0.06 0.472,0.45 -0.061,-0.07 0.368,0.49 -0.057,-0.09 0.262,0.53 -0.038,-0.1 0.165,0.56 -0.018,-0.08 0.09,0.59 -0.006,-0.11 -0.03,0.6 0.016,-0.1 -0.143,0.6 0.043,-0.12 -0.285,0.59 0.063,-0.1 -0.435,0.57 0.075,-0.09 -0.593,0.54 0.061,-0.05 -0.36,0.25 0.033,-0.03 -0.405,0.24 0.038,-0.02 -0.45,0.23 0.043,-0.02 -0.502,0.2 0.034,-0.01 -0.9,0.3 0.035,-0.01 -1.013,0.27 0.024,-0.01 -1.11,0.25 h 0.016 l -1.2,0.23 h 0.014 l -1.283,0.22 0.016,-0.01 -1.365,0.2 h 0.006 l -1.418,0.18 h 0.007 l -1.485,0.18 h 0.005 l -1.53,0.18 h 10e-4 l -1.575,0.17 -3.224,0.35 h -0.003 l -3.285,0.38 h -0.01 l -3.277,0.42 -0.014,0.01 -3.195,0.49 h -0.017 l -1.552,0.29 h -0.012 l -1.5,0.31 h -0.016 l -1.447,0.34 h -0.02 l -1.388,0.38 -0.019,0.01 -1.32,0.4 -0.029,0.01 -1.237,0.45 -0.03,0.01 -1.147,0.49 -0.036,0.02 -1.05,0.53 -0.041,0.02 -0.945,0.58 -0.047,0.03 -0.84,0.63 -0.059,0.05 -0.705,0.69 -0.049,0.06 -0.585,0.73 -0.056,0.08 -0.442,0.81 -0.042,0.09 -0.292,0.86 -0.025,0.1 -0.248,1.6 -0.005,0.05 -0.12,1.5 -0.002,0.03 -0.037,1.4 v 0.01 l -0.008,1.31 v -0.02 l -0.037,1.2 0.002,-0.04 -0.105,1.11 0.012,-0.08 -0.225,1.01 0.026,-0.09 -0.18,0.47 0.024,-0.06 -0.225,0.45 0.164,-0.2 -0.375,0.29 0.04,-0.03 -0.39,0.26 0.084,-0.05 -0.81,0.36 0.105,-0.03 -0.825,0.19 0.12,-0.02 -0.818,0.03 0.121,0.01 -0.795,-0.15 0.116,0.04 -0.75,-0.3 0.104,0.05 -0.69,-0.45 0.095,0.08 -0.6,-0.6 0.057,0.06 -0.172,-0.23 0.018,0.03 -0.217,-0.33 0.008,0.01 -0.263,-0.42 0.008,0.01 -0.3,-0.51 0.003,0.01 -0.338,-0.59 0.003,0.01 -0.367,-0.65 h 0.004 l -0.398,-0.72 -0.428,-0.78 h 0.005 l -0.443,-0.84 -0.464,-0.88 -0.982,-1.88 0.003,0.01 -1.013,-1.99 -1.034,-2.04 h 0.002 l -1.02,-2.05 -0.99,-2 0.002,0.01 -0.922,-1.9 h 0.002 l -0.428,-0.9 -0.404,-0.85 h 10e-4 l -0.375,-0.8 h -0.002 l -0.352,-0.75 0.005,0.01 -0.308,-0.68 0.003,0.01 -0.27,-0.62 -0.232,-0.53 0.005,0.01 -0.187,-0.45 h 0.002 l -0.142,-0.36 0.011,0.03 -0.09,-0.27 0.012,0.04 -0.12,-0.46 0.009,0.04 -0.09,-0.51 0.008,0.06 -0.083,-1.1 10e-4,0.07 0.023,-0.58 -0.004,0.04 0.068,-0.58 -0.009,0.05 0.12,-0.58 -0.013,0.06 0.172,-0.57 -0.022,0.06 0.232,-0.54 -0.032,0.07 0.293,-0.5 -0.044,0.06 0.36,-0.46 -0.061,0.06 0.435,-0.41 -0.071,0.06 0.51,-0.35 -0.085,0.04 0.592,-0.27 -0.087,0.03 0.675,-0.19 -0.084,0.01 z m -0.926,-1.07 -0.084,0.02 -0.675,0.19 -0.087,0.03 -0.593,0.28 -0.085,0.05 -0.51,0.35 -0.071,0.06 -0.435,0.41 -0.061,0.07 -0.36,0.46 -0.044,0.07 -0.292,0.5 -0.032,0.07 -0.233,0.54 -0.022,0.06 -0.173,0.56 -0.013,0.05 -0.12,0.58 -0.009,0.05 -0.067,0.59 -0.004,0.04 -0.022,0.58 10e-4,0.07 0.082,1.1 0.008,0.06 0.09,0.51 0.009,0.04 0.12,0.47 0.012,0.04 0.09,0.27 0.011,0.03 0.143,0.36 0.002,0.01 0.188,0.45 0.005,0.02 0.233,0.53 0.27,0.61 0.003,0.01 0.307,0.68 0.005,0.01 0.352,0.74 h -10e-4 l 0.375,0.8 10e-4,0.01 0.406,0.85 0.427,0.9 0.002,0.01 0.923,1.89 0.002,0.01 0.99,2 1.02,2.05 h 0.002 l 1.036,2.05 1.012,1.99 0.003,0.01 0.983,1.87 0.466,0.89 0.442,0.84 0.005,0.01 0.427,0.77 0.397,0.73 0.004,0.01 0.368,0.65 0.003,0.01 0.337,0.58 0.003,0.01 0.3,0.51 0.008,0.01 0.262,0.42 0.008,0.01 0.218,0.33 0.018,0.03 0.173,0.23 0.057,0.07 0.6,0.6 0.095,0.07 0.69,0.45 0.104,0.06 0.75,0.3 0.116,0.03 0.795,0.14 0.121,0.01 0.817,-0.02 0.12,-0.01 0.825,-0.2 0.105,-0.04 0.81,-0.36 0.084,-0.04 0.39,-0.26 0.04,-0.02 0.375,-0.3 0.164,-0.2 0.225,-0.44 0.024,-0.05 0.18,-0.47 0.026,-0.08 0.225,-1.01 0.012,-0.07 0.105,-1.1 0.002,-0.04 0.038,-1.2 v -0.02 l 0.007,-1.3 v 0.01 l 0.038,-1.4 -0.002,0.03 0.12,-1.5 -0.005,0.04 0.247,-1.6 -0.025,0.1 0.293,-0.86 -0.042,0.1 0.443,-0.8 -0.056,0.08 0.585,-0.74 -0.049,0.06 0.705,-0.69 -0.059,0.05 0.84,-0.63 -0.047,0.03 0.945,-0.58 -0.041,0.03 1.05,-0.54 -0.036,0.02 1.148,-0.49 -0.03,0.02 1.238,-0.45 h -0.029 l 1.32,-0.4 -0.019,0.01 1.387,-0.38 -0.02,0.01 1.448,-0.34 h -0.016 l 1.5,-0.31 -0.012,0.01 1.553,-0.29 h -0.017 l 3.195,-0.49 h -0.014 l 3.278,-0.43 h -0.01 l 3.285,-0.37 h -0.003 l 3.226,-0.35 1.575,-0.18 h 10e-4 l 1.53,-0.17 h 0.005 l 1.485,-0.18 h 0.007 l 1.417,-0.19 h 0.006 l 1.365,-0.19 h 0.016 l 1.282,-0.22 h 0.014 l 1.2,-0.24 h 0.016 l 1.11,-0.25 h 0.024 l 1.012,-0.27 0.035,-0.01 0.9,-0.3 0.034,-0.02 0.503,-0.2 0.043,-0.02 0.45,-0.22 0.038,-0.02 0.405,-0.24 0.033,-0.03 0.36,-0.24 0.061,-0.05 0.592,-0.53 0.075,-0.08 0.435,-0.57 0.063,-0.11 0.285,-0.59 0.043,-0.12 0.142,-0.6 0.016,-0.11 0.03,-0.61 -0.006,-0.11 -0.09,-0.6 -0.018,-0.07 -0.165,-0.57 -0.038,-0.1 -0.263,-0.52 -0.057,-0.09 -0.367,-0.49 -0.061,-0.07 -0.473,-0.46 -0.083,-0.06 -0.608,-0.41 -0.072,-0.04 -0.735,-0.35 -0.068,-0.03 -0.892,-0.3 -0.055,-0.02 -1.065,-0.24 -0.061,-0.01 -0.18,-0.03 -0.24,-0.03 h -0.017 l -0.315,-0.03 h 0.003 l -0.375,-0.04 h -0.009 l -0.435,-0.03 h -0.015 l -0.495,-0.03 h 0.012 l -0.555,-0.05 h -0.011 l -0.607,-0.04 h 0.003 l -0.66,-0.04 h -0.009 l -0.712,-0.04 h 0.004 l -0.758,-0.04 h -0.002 l -0.802,-0.05 -1.733,-0.1 h -0.002 l -1.89,-0.09 h -0.003 l -2.031,-0.1 -2.145,-0.11 -2.242,-0.11 h -0.003 l -2.332,-0.1 -2.392,-0.12 h -0.002 l -2.437,-0.1 -4.944,-0.22 -2.46,-0.11 -2.444,-0.1 -2.394,-0.11 -2.326,-0.09 -2.249,-0.09 -2.153,-0.09 -2.026,-0.09 -1.898,-0.07 -1.74,-0.07 h 0.005 l -0.802,-0.03 -0.005,-0.01 -0.763,-0.03 -0.713,-0.03 h -0.004 l -0.659,-0.02 -0.605,-0.02 -0.563,-0.02 h 0.003 l -0.495,-0.02 -0.006,-0.01 -0.443,-0.01 h 0.004 l -0.375,-0.02 0.004,0.01 -0.315,-0.02 h -0.01 l -0.248,-0.01 h 0.007 l -0.18,-0.01 0.015,0.01 -0.113,-0.01 h -0.039 -0.038 -0.08 z"
           style="fill:#000000;fill-opacity:1;fill-rule:nonzero;stroke:none"
           id="path5589" />
        <path
           d="m 41.65,131.44 0.023,-0.1 0.045,-0.34 0.004,-0.12 -0.023,-0.33 -0.02,-0.12 -0.09,-0.32 -0.044,-0.11 -0.15,-0.29 -0.063,-0.1 -0.202,-0.26 -0.066,-0.07 -0.247,-0.22 -0.114,-0.08 -0.3,-0.17 -0.106,-0.04 -0.33,-0.11 -0.114,-0.02 -0.337,-0.04 h -0.12 l -0.33,0.03 -0.121,0.02 -0.315,0.1 -0.101,0.04 -0.285,0.15 -0.093,0.06 -0.255,0.21 -0.077,0.07 -0.217,0.25 -0.068,0.09 -0.165,0.29 -0.051,0.11 -0.105,0.32 -0.024,0.11 -0.045,0.34 -0.004,0.12 0.023,0.34 0.021,0.12 0.09,0.32 0.038,0.1 0.142,0.29 0.069,0.11 0.202,0.26 0.073,0.07 0.248,0.22 0.1,0.07 0.292,0.17 0.108,0.04 0.323,0.11 0.119,0.03 0.345,0.03 h 0.117 l 0.338,-0.03 0.11,-0.02 0.315,-0.09 0.097,-0.03 0.292,-0.15 0.103,-0.06 0.262,-0.2 0.09,-0.09 0.21,-0.25 0.068,-0.09 0.165,-0.3 0.045,-0.11 z m -1.235,-0.03 0.045,-0.11 -0.165,0.3 0.068,-0.09 -0.21,0.24 0.09,-0.08 -0.263,0.2 0.103,-0.06 -0.293,0.14 0.097,-0.04 -0.315,0.09 0.11,-0.02 -0.337,0.03 h 0.117 l -0.345,-0.03 0.119,0.02 -0.322,-0.1 0.108,0.04 -0.293,-0.16 0.1,0.07 -0.247,-0.22 0.073,0.08 -0.203,-0.26 0.069,0.11 -0.143,-0.29 0.038,0.1 -0.09,-0.32 0.021,0.12 -0.022,-0.34 -0.004,0.12 0.045,-0.35 -0.024,0.11 0.105,-0.32 -0.051,0.11 0.165,-0.29 -0.068,0.1 0.218,-0.25 -0.077,0.07 0.255,-0.2 -0.093,0.06 0.285,-0.15 -0.101,0.04 0.315,-0.09 -0.121,0.02 0.33,-0.03 h -0.12 l 0.338,0.04 -0.114,-0.03 0.33,0.11 -0.106,-0.05 0.3,0.17 -0.114,-0.08 0.248,0.22 -0.066,-0.07 0.203,0.26 -0.063,-0.1 0.15,0.29 -0.044,-0.11 0.09,0.32 -0.02,-0.12 0.022,0.33 0.004,-0.12 -0.045,0.34 0.023,-0.1 z"
           style="fill:#000000;fill-opacity:1;fill-rule:nonzero;stroke:none"
           id="path5591" />
        <path
           d="m 52.608,155.88 0.032,-0.14 0.037,-0.34 10e-4,-0.12 -0.03,-0.33 -0.024,-0.13 -0.097,-0.31 -0.039,-0.1 -0.15,-0.29 -0.058,-0.09 -0.203,-0.26 -0.078,-0.09 -0.247,-0.22 -0.1,-0.07 -0.293,-0.16 -0.108,-0.05 -0.322,-0.1 -0.12,-0.03 -0.345,-0.04 h -0.117 l -0.337,0.03 -0.111,0.02 -0.315,0.09 -0.107,0.04 -0.293,0.15 -0.091,0.06 -0.263,0.21 -0.09,0.08 -0.21,0.25 -0.064,0.09 -0.165,0.29 -0.048,0.11 -0.105,0.32 -0.025,0.12 -0.038,0.35 -10e-4,0.12 0.03,0.33 0.02,0.11 0.09,0.32 0.038,0.1 0.142,0.29 0.064,0.1 0.202,0.26 0.086,0.09 0.248,0.21 0.092,0.07 0.292,0.16 0.112,0.05 0.33,0.11 0.114,0.02 0.338,0.04 h 0.119 l 0.33,-0.03 0.11,-0.02 0.315,-0.09 0.096,-0.04 0.293,-0.14 0.109,-0.07 0.255,-0.2 0.077,-0.08 0.217,-0.24 0.066,-0.09 0.172,-0.3 0.047,-0.09 z m -1.236,-0.08 0.047,-0.1 -0.173,0.29 0.066,-0.09 -0.218,0.25 0.077,-0.07 -0.255,0.2 0.109,-0.07 -0.292,0.14 0.096,-0.03 -0.315,0.09 0.11,-0.02 -0.33,0.03 h 0.119 l -0.337,-0.04 0.114,0.02 -0.33,-0.1 0.112,0.05 -0.293,-0.17 0.092,0.07 -0.247,-0.21 0.086,0.09 -0.203,-0.26 0.064,0.1 -0.143,-0.29 0.038,0.09 -0.09,-0.31 0.02,0.11 -0.03,-0.34 -10e-4,0.12 0.037,-0.35 -0.025,0.12 0.105,-0.32 -0.048,0.11 0.165,-0.3 -0.064,0.1 0.21,-0.25 -0.09,0.08 0.262,-0.2 -0.091,0.06 0.292,-0.15 -0.107,0.04 0.315,-0.09 -0.111,0.02 0.338,-0.03 h -0.117 l 0.345,0.04 -0.12,-0.03 0.323,0.11 -0.108,-0.05 0.292,0.17 -0.1,-0.07 0.248,0.21 -0.078,-0.08 0.202,0.26 -0.058,-0.09 0.15,0.29 -0.039,-0.09 0.098,0.31 -0.025,-0.12 0.031,0.34 10e-4,-0.12 -0.038,0.34 0.032,-0.14 z"
           style="fill:#000000;fill-opacity:1;fill-rule:nonzero;stroke:none"
           id="path5593" />
        <path
           d="m 95.868,133.5 0.024,-0.11 0.038,-0.34 10e-4,-0.12 -0.03,-0.33 -0.021,-0.11 -0.089,-0.31 -0.04,-0.11 -0.143,-0.28 -0.061,-0.1 -0.202,-0.26 -0.078,-0.08 -0.248,-0.22 -0.09,-0.07 -0.293,-0.17 -0.11,-0.05 -0.33,-0.11 -0.125,-0.03 -0.338,-0.04 h -0.119 l -0.33,0.03 -0.122,0.03 -0.315,0.09 -0.095,0.04 -0.293,0.15 -0.098,0.07 -0.255,0.2 -0.077,0.07 -0.217,0.25 -0.062,0.08 -0.173,0.29 -0.052,0.11 -0.113,0.32 -0.029,0.13 -0.038,0.35 -0.001,0.12 0.03,0.33 0.019,0.11 0.091,0.32 0.043,0.11 0.15,0.3 0.063,0.09 0.203,0.26 0.081,0.08 0.247,0.21 0.092,0.07 0.293,0.16 0.108,0.05 0.322,0.1 0.12,0.03 0.345,0.04 h 0.103 l 0.338,-0.02 0.124,-0.02 0.315,-0.09 0.107,-0.05 0.293,-0.15 0.083,-0.05 0.262,-0.19 0.099,-0.1 0.21,-0.24 0.067,-0.1 0.165,-0.3 0.046,-0.11 z m -1.236,-0.03 0.046,-0.1 -0.165,0.3 0.067,-0.1 -0.21,0.25 0.099,-0.1 -0.263,0.2 0.083,-0.05 -0.292,0.15 0.107,-0.05 -0.315,0.09 0.124,-0.02 -0.337,0.03 h 0.103 l -0.345,-0.04 0.12,0.03 -0.323,-0.11 0.108,0.05 -0.292,-0.17 0.092,0.07 -0.248,-0.21 0.081,0.08 -0.202,-0.25 0.063,0.09 -0.15,-0.29 0.043,0.11 -0.09,-0.32 0.02,0.11 -0.03,-0.34 -10e-4,0.12 0.037,-0.35 -0.029,0.13 0.112,-0.32 -0.052,0.11 0.172,-0.28 -0.062,0.08 0.218,-0.25 -0.077,0.08 0.255,-0.21 -0.098,0.07 0.292,-0.15 -0.095,0.04 0.315,-0.1 -0.122,0.02 0.33,-0.03 h -0.119 l 0.337,0.04 -0.125,-0.03 0.33,0.11 -0.11,-0.05 0.292,0.18 -0.09,-0.07 0.247,0.22 -0.078,-0.08 0.203,0.26 -0.061,-0.1 0.142,0.29 -0.039,-0.11 0.09,0.32 -0.021,-0.11 0.03,0.33 0.001,-0.12 -0.037,0.34 0.024,-0.12 z"
           style="fill:#000000;fill-opacity:1;fill-rule:nonzero;stroke:none"
           id="path5595" />
        <path
           d="M 93.729,131.41 90.14,116.72 88.988,117 92.576,131.69 Z"
           style="fill:#000000;fill-opacity:1;fill-rule:nonzero;stroke:none"
           id="path5597" />
        <path
           d="m 117.59,163.87 3.9,6.86 h 1.07 l 1.13,-6.86 h -0.87 l -0.34,1.97 h -2.77 l -1.1,-1.97 z m 2.52,2.68 h 2.26 l -0.26,1.72 c -0.11,0.68 -0.17,1.25 -0.2,1.7 -0.17,-0.37 -0.39,-0.85 -0.67,-1.39 z"
           style="fill:#000000;fill-opacity:1;fill-rule:nonzero;stroke:none"
           id="path5599" />
        <path
           d="m 72.188,165.17 1.441,6.86 h 2.119 c 0.396,0 0.678,-0.03 0.876,-0.06 0.311,-0.05 0.565,-0.14 0.763,-0.28 0.226,-0.11 0.367,-0.31 0.48,-0.53 0.113,-0.23 0.17,-0.48 0.17,-0.77 0,-0.36 -0.085,-0.7 -0.311,-0.99 -0.198,-0.28 -0.509,-0.5 -0.933,-0.65 0.368,-0.11 0.65,-0.31 0.82,-0.56 0.198,-0.23 0.282,-0.51 0.282,-0.85 0,-0.37 -0.113,-0.73 -0.311,-1.07 -0.226,-0.37 -0.508,-0.62 -0.875,-0.82 -0.368,-0.17 -0.763,-0.28 -1.187,-0.28 z m 1.752,3.92 h 1.384 c 0.678,0 1.13,0.12 1.441,0.31 0.283,0.23 0.424,0.54 0.424,0.94 0,0.19 -0.028,0.36 -0.141,0.5 -0.085,0.15 -0.198,0.23 -0.339,0.32 -0.17,0.05 -0.452,0.08 -0.876,0.08 h -1.441 z m -0.65,-3.13 h 1.554 c 0.424,0 0.678,0 0.819,0.03 0.311,0.05 0.537,0.14 0.707,0.25 0.197,0.14 0.339,0.28 0.423,0.48 0.113,0.2 0.17,0.4 0.17,0.62 0,0.31 -0.113,0.57 -0.311,0.74 -0.198,0.17 -0.565,0.25 -1.13,0.25 H 73.77 Z"
           style="fill:#000000;fill-opacity:1;fill-rule:nonzero;stroke:none"
           id="path5601" />
        <path
           d="m 41.392,161.8 0.904,-0.11 c -0.283,-0.79 -0.707,-1.38 -1.243,-1.81 -0.566,-0.39 -1.187,-0.59 -1.865,-0.59 -0.82,0 -1.498,0.25 -1.978,0.76 -0.48,0.51 -0.735,1.25 -0.735,2.18 0,1.24 0.368,2.26 1.131,3.05 0.649,0.73 1.469,1.1 2.458,1.1 0.734,0 1.299,-0.2 1.751,-0.59 0.452,-0.4 0.707,-0.91 0.791,-1.58 l -0.847,-0.06 c -0.085,0.48 -0.283,0.85 -0.565,1.1 -0.283,0.23 -0.65,0.37 -1.102,0.37 -0.819,0 -1.498,-0.37 -2.034,-1.13 -0.424,-0.62 -0.65,-1.39 -0.65,-2.29 0,-0.71 0.169,-1.24 0.508,-1.61 0.339,-0.37 0.791,-0.54 1.357,-0.54 0.48,0 0.904,0.14 1.271,0.46 0.396,0.31 0.678,0.73 0.848,1.29 z"
           style="fill:#000000;fill-opacity:1;fill-rule:nonzero;stroke:none"
           id="path5603" />
        <path
           d="m 25.231,136.86 1.412,6.84 h 2.063 c 0.508,0 0.876,-0.03 1.158,-0.09 0.367,-0.11 0.678,-0.28 0.961,-0.54 0.254,-0.22 0.452,-0.53 0.593,-0.93 0.113,-0.37 0.198,-0.76 0.198,-1.24 0,-0.54 -0.085,-1.05 -0.254,-1.5 -0.17,-0.45 -0.396,-0.85 -0.65,-1.18 -0.283,-0.37 -0.565,-0.63 -0.848,-0.82 -0.311,-0.2 -0.65,-0.34 -1.045,-0.43 -0.311,-0.08 -0.678,-0.11 -1.13,-0.11 z m 1.073,0.76 h 1.074 c 0.508,0 0.932,0.06 1.299,0.14 0.255,0.06 0.453,0.14 0.622,0.26 0.226,0.14 0.424,0.31 0.593,0.56 0.255,0.28 0.424,0.65 0.565,1.05 0.142,0.36 0.226,0.82 0.226,1.33 0,0.53 -0.113,0.98 -0.282,1.27 -0.198,0.31 -0.452,0.51 -0.735,0.59 -0.226,0.06 -0.593,0.11 -1.045,0.11 h -1.215 z"
           style="fill:#000000;fill-opacity:1;fill-rule:nonzero;stroke:none"
           id="path5605" />
        <path
           d="m 86.71,143.58 1.441,6.87 h 4.945 l -0.17,-0.79 h -4.04 l -0.452,-2.12 h 3.927 l -0.141,-0.79 h -3.927 l -0.509,-2.38 h 4.323 l -0.17,-0.79 z"
           style="fill:#000000;fill-opacity:1;fill-rule:nonzero;stroke:none"
           id="path5607" />
        <path
           d="m 72.527,113.67 1.413,6.83 h 4.464 l -0.17,-0.76 h -3.531 l -0.452,-2.18 h 3.588 l -0.141,-0.79 h -3.617 l -0.65,-3.1 z"
           style="fill:#000000;fill-opacity:1;fill-rule:nonzero;stroke:none"
           id="path5609" />
        <path
           d="m 124.15,153.5 0.17,0.76 h 2.99 l -0.59,-2.8 c -0.37,-0.22 -0.79,-0.42 -1.27,-0.56 -0.48,-0.17 -0.96,-0.23 -1.44,-0.23 -0.99,0 -1.73,0.29 -2.24,0.91 -0.39,0.51 -0.62,1.16 -0.62,1.95 0,0.82 0.2,1.58 0.57,2.23 0.34,0.68 0.82,1.19 1.35,1.5 0.57,0.34 1.19,0.5 1.84,0.5 0.51,0 0.93,-0.11 1.33,-0.28 0.36,-0.17 0.68,-0.39 0.87,-0.7 0.2,-0.29 0.37,-0.68 0.46,-1.16 l -0.91,-0.09 c -0.08,0.48 -0.28,0.82 -0.59,1.08 -0.31,0.25 -0.71,0.39 -1.19,0.39 -0.48,0 -0.93,-0.14 -1.38,-0.42 -0.43,-0.26 -0.77,-0.68 -1.02,-1.22 -0.25,-0.53 -0.4,-1.15 -0.4,-1.83 0,-0.71 0.17,-1.22 0.51,-1.58 0.34,-0.34 0.82,-0.51 1.42,-0.51 0.59,0 1.24,0.19 1.92,0.56 l 0.31,1.5 z"
           style="fill:#000000;fill-opacity:1;fill-rule:nonzero;stroke:none"
           id="path5611" />
        <path
           d="m 38.397,132.59 c -0.707,3.14 -3.108,4.98 -5.255,5.43"
           style="fill:none;stroke:#000000;stroke-width:0.7911;stroke-linecap:butt;stroke-linejoin:miter;stroke-miterlimit:8;stroke-dasharray:none;stroke-opacity:1"
           id="path5613" />
        <path
           d="m 49.698,156.55 c -0.706,3.14 -3.136,5 -5.255,5.42"
           style="fill:none;stroke:#000000;stroke-width:0.7911;stroke-linecap:butt;stroke-linejoin:miter;stroke-miterlimit:8;stroke-dasharray:none;stroke-opacity:1"
           id="path5615" />
        <path
           d="m 111.71,161.69 c 0.74,3.14 3.14,4.97 5.29,5.43"
           style="fill:none;stroke:#000000;stroke-width:0.7911;stroke-linecap:butt;stroke-linejoin:miter;stroke-miterlimit:8;stroke-dasharray:none;stroke-opacity:1"
           id="path5617" />
        <path
           d="m 113.95,147.2 c 0.7,3.13 3.13,4.97 5.25,5.39"
           style="fill:none;stroke:#000000;stroke-width:0.7911;stroke-linecap:butt;stroke-linejoin:miter;stroke-miterlimit:8;stroke-dasharray:none;stroke-opacity:1"
           id="path5619" />
        <path
           d="m 84.478,161.1 c -0.706,3.13 -3.136,4.97 -5.283,5.39"
           style="fill:none;stroke:#000000;stroke-width:0.7911;stroke-linecap:butt;stroke-linejoin:miter;stroke-miterlimit:8;stroke-dasharray:none;stroke-opacity:1"
           id="path5621" />
        <path
           d="m 94,134.71 c 0.989,3.05 -0.141,5.88 -1.78,7.35"
           style="fill:none;stroke:#000000;stroke-width:0.7911;stroke-linecap:butt;stroke-linejoin:miter;stroke-miterlimit:8;stroke-dasharray:none;stroke-opacity:1"
           id="path5623" />
        <path
           d="m 79.364,115.9 c 2.769,1.66 5.764,1.21 7.544,-0.03"
           style="fill:none;stroke:#000000;stroke-width:0.7911;stroke-linecap:butt;stroke-linejoin:miter;stroke-miterlimit:8;stroke-dasharray:none;stroke-opacity:1"
           id="path5625" />
        <path
           d="m 54.925,68.916 c 0,-1.808 -1.441,-3.249 -3.249,-3.249 -1.78,0 -3.249,1.441 -3.249,3.249 0,1.779 1.469,3.22 3.249,3.22 1.808,0 3.249,-1.441 3.249,-3.22 z"
           style="fill:#ffffff;fill-opacity:1;fill-rule:nonzero;stroke:none"
           id="path5627" />
        <path
           d="m 54.925,68.916 c 0,-1.808 -1.441,-3.249 -3.249,-3.249 -1.78,0 -3.249,1.441 -3.249,3.249 0,1.779 1.469,3.22 3.249,3.22 1.808,0 3.249,-1.441 3.249,-3.22 z"
           style="fill:none;stroke:#000000;stroke-width:0.7911;stroke-linecap:butt;stroke-linejoin:miter;stroke-miterlimit:8;stroke-dasharray:none;stroke-opacity:1"
           id="path5629" />
        <path
           d="m 54.925,68.916 c 0,-1.808 -1.441,-3.249 -3.249,-3.249 v 3.249 z"
           style="fill:#000000;fill-opacity:1;fill-rule:nonzero;stroke:none"
           id="path5631" />
        <path
           d="m 54.925,68.916 c 0,-1.808 -1.441,-3.249 -3.249,-3.249 v 3.249 z"
           style="fill:none;stroke:#000000;stroke-width:0.7911;stroke-linecap:butt;stroke-linejoin:miter;stroke-miterlimit:8;stroke-dasharray:none;stroke-opacity:1"
           id="path5633" />
        <path
           d="m 48.427,68.916 c 0,1.779 1.469,3.22 3.249,3.22 v -3.22 z"
           style="fill:#000000;fill-opacity:1;fill-rule:nonzero;stroke:none"
           id="path5635" />
        <path
           d="m 48.427,68.916 c 0,1.779 1.469,3.22 3.249,3.22 v -3.22 z"
           style="fill:none;stroke:#000000;stroke-width:0.7911;stroke-linecap:butt;stroke-linejoin:miter;stroke-miterlimit:8;stroke-dasharray:none;stroke-opacity:1"
           id="path5637" />
        <path
           d="M 16.811,85.499 C 39.357,86.29 34.102,73.407 49.02,69.791"
           style="fill:none;stroke:#000000;stroke-width:0.7911;stroke-linecap:butt;stroke-linejoin:miter;stroke-miterlimit:8;stroke-dasharray:none;stroke-opacity:1"
           id="path5639" />
        <path
           d="M 4.9444,85.245 5.7637,85.132 C 5.679,84.567 5.453,84.115 5.0857,83.804 4.7184,83.493 4.2663,83.324 3.7012,83.324 c -0.6781,0 -1.2149,0.226 -1.6387,0.678 -0.3955,0.423 -0.5933,1.073 -0.5933,1.892 0,0.537 0.0848,1.017 0.2543,1.413 0.1695,0.395 0.452,0.706 0.8193,0.904 0.3391,0.198 0.7346,0.311 1.1867,0.311 0.5368,0 0.9606,-0.142 1.2996,-0.424 0.3391,-0.283 0.5651,-0.65 0.6781,-1.158 L 4.8879,86.798 c -0.0848,0.339 -0.226,0.594 -0.4238,0.763 -0.1978,0.17 -0.4238,0.254 -0.7064,0.254 -0.4238,0 -0.7628,-0.141 -1.0454,-0.452 -0.2542,-0.31 -0.3955,-0.791 -0.3955,-1.44 0,-0.678 0.1413,-1.159 0.3955,-1.469 0.2543,-0.283 0.5934,-0.452 0.9889,-0.452 0.3391,0 0.6216,0.113 0.8194,0.31 0.226,0.198 0.3673,0.509 0.4238,0.933 z"
           style="fill:#000000;fill-opacity:1;fill-rule:nonzero;stroke:none"
           id="path5641" />
        <path
           d="m 6.4983,83.437 v 4.972 h 0.7629 v -0.707 c 0.1413,0.255 0.339,0.424 0.6216,0.594 0.2542,0.141 0.5368,0.226 0.8758,0.226 0.3673,0 0.6499,-0.085 0.9041,-0.255 0.2261,-0.141 0.3953,-0.367 0.4803,-0.621 0.396,0.565 0.904,0.876 1.554,0.876 0.48,0 0.848,-0.142 1.13,-0.424 0.254,-0.283 0.396,-0.678 0.396,-1.271 v -3.39 h -0.848 v 3.135 c 0,0.311 -0.028,0.565 -0.085,0.707 -0.056,0.169 -0.141,0.282 -0.282,0.367 -0.141,0.085 -0.311,0.141 -0.509,0.141 -0.339,0 -0.65,-0.113 -0.876,-0.367 -0.226,-0.226 -0.339,-0.593 -0.339,-1.102 V 83.437 H 9.4367 v 3.22 c 0,0.367 -0.0565,0.65 -0.1978,0.848 -0.1412,0.169 -0.3673,0.282 -0.678,0.282 -0.2261,0 -0.4521,-0.056 -0.6499,-0.198 C 7.7132,87.476 7.572,87.279 7.4872,87.053 7.3742,86.798 7.3459,86.459 7.3459,86.007 v -2.57 z"
           style="fill:#000000;fill-opacity:1;fill-rule:nonzero;stroke:none"
           id="path5643" />
        <path
           d="m 16.952,82.985 -0.565,-0.029 c -0.056,0.198 -0.113,0.368 -0.226,0.481 -0.141,0.141 -0.339,0.226 -0.537,0.226 -0.198,0 -0.339,-0.057 -0.48,-0.142 -0.17,-0.141 -0.311,-0.31 -0.424,-0.565 -0.085,-0.254 -0.141,-0.593 -0.141,-1.073 0.113,0.226 0.282,0.367 0.48,0.48 0.198,0.085 0.396,0.141 0.622,0.141 0.367,0 0.678,-0.141 0.96,-0.423 0.255,-0.255 0.396,-0.622 0.396,-1.046 0,-0.311 -0.085,-0.565 -0.198,-0.819 -0.113,-0.226 -0.282,-0.424 -0.508,-0.565 -0.226,-0.113 -0.452,-0.198 -0.735,-0.198 -0.48,0 -0.848,0.17 -1.158,0.537 -0.283,0.339 -0.424,0.904 -0.424,1.695 0,0.876 0.169,1.526 0.48,1.921 0.283,0.339 0.678,0.509 1.159,0.509 0.367,0 0.649,-0.085 0.875,-0.283 0.226,-0.198 0.368,-0.48 0.424,-0.847 z m -2.288,-1.978 c 0,-0.17 0.028,-0.367 0.113,-0.537 0.084,-0.169 0.197,-0.311 0.339,-0.395 0.141,-0.113 0.31,-0.142 0.48,-0.142 0.226,0 0.424,0.085 0.593,0.283 0.17,0.198 0.255,0.452 0.255,0.763 0,0.339 -0.085,0.565 -0.255,0.763 -0.169,0.169 -0.367,0.254 -0.621,0.254 -0.255,0 -0.481,-0.085 -0.65,-0.254 -0.17,-0.198 -0.254,-0.424 -0.254,-0.735 z"
           style="fill:#000000;fill-opacity:1;fill-rule:nonzero;stroke:none"
           id="path5645" />
        <path
           d="m 112.48,102.05 0.87,0.09 c 0.06,-0.45 0.23,-0.76 0.46,-0.99 0.22,-0.2 0.53,-0.31 0.87,-0.31 0.4,0 0.74,0.14 1.02,0.45 0.28,0.31 0.42,0.71 0.42,1.22 0,0.48 -0.14,0.84 -0.39,1.13 -0.29,0.28 -0.65,0.42 -1.08,0.42 -0.28,0 -0.51,-0.06 -0.73,-0.2 -0.23,-0.11 -0.4,-0.28 -0.51,-0.48 l -0.79,0.11 0.65,3.54 h 3.42 v -0.82 h -2.74 l -0.37,-1.84 c 0.42,0.28 0.85,0.42 1.3,0.42 0.59,0 1.1,-0.19 1.52,-0.62 0.4,-0.39 0.6,-0.93 0.6,-1.58 0,-0.62 -0.17,-1.16 -0.54,-1.61 -0.42,-0.56 -1.04,-0.85 -1.78,-0.85 -0.62,0 -1.13,0.2 -1.52,0.54 -0.4,0.34 -0.63,0.82 -0.68,1.38 z"
           style="fill:#000000;fill-opacity:1;fill-rule:nonzero;stroke:none"
           id="path5647" />
        <path
           d="m 121.18,103.58 c 0,-3.56 -2.88,-6.442 -6.44,-6.442 -3.56,0 -6.44,2.882 -6.44,6.442 0,3.56 2.88,6.44 6.44,6.44 3.56,0 6.44,-2.88 6.44,-6.44 z"
           style="fill:none;stroke:#000000;stroke-width:0.7911;stroke-linecap:butt;stroke-linejoin:miter;stroke-miterlimit:8;stroke-dasharray:none;stroke-opacity:1"
           id="path5649" />
        <path
           d="M 90.468,119.85 108.86,106.63"
           style="fill:none;stroke:#000000;stroke-width:0.7911;stroke-linecap:butt;stroke-linejoin:miter;stroke-miterlimit:8;stroke-dasharray:none;stroke-opacity:1"
           id="path5651" />
      </g>
    </g>
  </g>
</svg>
